<mxfile host="Electron" agent="Mozilla/5.0 (Windows NT 10.0; Win64; x64) AppleWebKit/537.36 (KHTML, like Gecko) draw.io/26.0.4 Chrome/128.0.6613.186 Electron/32.2.5 Safari/537.36" version="26.0.4">
  <diagram name="Page-1" id="RHZEH2yPetqrOykcjmWl">
    <mxGraphModel dx="3267" dy="776" grid="1" gridSize="10" guides="1" tooltips="1" connect="1" arrows="1" fold="1" page="1" pageScale="1" pageWidth="1654" pageHeight="1169" math="0" shadow="0">
      <root>
        <mxCell id="0" />
        <mxCell id="1" parent="0" />
        <mxCell id="wd_ZxxUc7aDBKVdMZWth-227" style="edgeStyle=orthogonalEdgeStyle;rounded=0;orthogonalLoop=1;jettySize=auto;html=1;exitX=0.5;exitY=1;exitDx=0;exitDy=0;entryX=0;entryY=0.5;entryDx=0;entryDy=0;" edge="1" parent="1" source="wd_ZxxUc7aDBKVdMZWth-1" target="wd_ZxxUc7aDBKVdMZWth-171">
          <mxGeometry relative="1" as="geometry" />
        </mxCell>
        <mxCell id="wd_ZxxUc7aDBKVdMZWth-1" value="c_in[25]" style="text;html=1;align=center;verticalAlign=middle;whiteSpace=wrap;rounded=0;" vertex="1" parent="1">
          <mxGeometry x="40" y="20" width="50" height="20" as="geometry" />
        </mxCell>
        <mxCell id="wd_ZxxUc7aDBKVdMZWth-228" style="edgeStyle=orthogonalEdgeStyle;rounded=0;orthogonalLoop=1;jettySize=auto;html=1;exitX=0.5;exitY=1;exitDx=0;exitDy=0;entryX=0;entryY=0.5;entryDx=0;entryDy=0;" edge="1" parent="1" source="wd_ZxxUc7aDBKVdMZWth-2" target="wd_ZxxUc7aDBKVdMZWth-172">
          <mxGeometry relative="1" as="geometry" />
        </mxCell>
        <mxCell id="wd_ZxxUc7aDBKVdMZWth-2" value="c_in[24]" style="text;html=1;align=center;verticalAlign=middle;whiteSpace=wrap;rounded=0;" vertex="1" parent="1">
          <mxGeometry x="90" y="20" width="50" height="20" as="geometry" />
        </mxCell>
        <mxCell id="wd_ZxxUc7aDBKVdMZWth-254" style="edgeStyle=orthogonalEdgeStyle;rounded=0;orthogonalLoop=1;jettySize=auto;html=1;exitX=0.5;exitY=1;exitDx=0;exitDy=0;entryX=0;entryY=0.5;entryDx=0;entryDy=0;" edge="1" parent="1" source="wd_ZxxUc7aDBKVdMZWth-3" target="wd_ZxxUc7aDBKVdMZWth-196">
          <mxGeometry relative="1" as="geometry" />
        </mxCell>
        <mxCell id="wd_ZxxUc7aDBKVdMZWth-3" value="c_in[0]" style="text;html=1;align=center;verticalAlign=middle;whiteSpace=wrap;rounded=0;" vertex="1" parent="1">
          <mxGeometry x="1290" y="20" width="50" height="20" as="geometry" />
        </mxCell>
        <mxCell id="wd_ZxxUc7aDBKVdMZWth-226" style="edgeStyle=orthogonalEdgeStyle;rounded=0;orthogonalLoop=1;jettySize=auto;html=1;exitX=0.5;exitY=1;exitDx=0;exitDy=0;entryX=0;entryY=0.5;entryDx=0;entryDy=0;" edge="1" parent="1" source="wd_ZxxUc7aDBKVdMZWth-4" target="wd_ZxxUc7aDBKVdMZWth-197">
          <mxGeometry relative="1" as="geometry" />
        </mxCell>
        <mxCell id="wd_ZxxUc7aDBKVdMZWth-4" value="c_in[26]" style="text;html=1;align=center;verticalAlign=middle;whiteSpace=wrap;rounded=0;" vertex="1" parent="1">
          <mxGeometry x="-10" y="20" width="50" height="20" as="geometry" />
        </mxCell>
        <mxCell id="wd_ZxxUc7aDBKVdMZWth-253" style="edgeStyle=orthogonalEdgeStyle;rounded=0;orthogonalLoop=1;jettySize=auto;html=1;exitX=0.5;exitY=1;exitDx=0;exitDy=0;entryX=0;entryY=0.5;entryDx=0;entryDy=0;" edge="1" parent="1" source="wd_ZxxUc7aDBKVdMZWth-5" target="wd_ZxxUc7aDBKVdMZWth-195">
          <mxGeometry relative="1" as="geometry" />
        </mxCell>
        <mxCell id="wd_ZxxUc7aDBKVdMZWth-5" value="c_in[1]" style="text;html=1;align=center;verticalAlign=middle;whiteSpace=wrap;rounded=0;" vertex="1" parent="1">
          <mxGeometry x="1240" y="20" width="50" height="20" as="geometry" />
        </mxCell>
        <mxCell id="wd_ZxxUc7aDBKVdMZWth-252" style="edgeStyle=orthogonalEdgeStyle;rounded=0;orthogonalLoop=1;jettySize=auto;html=1;exitX=0.5;exitY=1;exitDx=0;exitDy=0;entryX=0;entryY=0.5;entryDx=0;entryDy=0;" edge="1" parent="1" source="wd_ZxxUc7aDBKVdMZWth-6" target="wd_ZxxUc7aDBKVdMZWth-192">
          <mxGeometry relative="1" as="geometry" />
        </mxCell>
        <mxCell id="wd_ZxxUc7aDBKVdMZWth-6" value="c_in[2]" style="text;html=1;align=center;verticalAlign=middle;whiteSpace=wrap;rounded=0;" vertex="1" parent="1">
          <mxGeometry x="1190" y="20" width="50" height="20" as="geometry" />
        </mxCell>
        <mxCell id="wd_ZxxUc7aDBKVdMZWth-251" style="edgeStyle=orthogonalEdgeStyle;rounded=0;orthogonalLoop=1;jettySize=auto;html=1;exitX=0.5;exitY=1;exitDx=0;exitDy=0;entryX=0;entryY=0.5;entryDx=0;entryDy=0;" edge="1" parent="1" source="wd_ZxxUc7aDBKVdMZWth-7" target="wd_ZxxUc7aDBKVdMZWth-193">
          <mxGeometry relative="1" as="geometry" />
        </mxCell>
        <mxCell id="wd_ZxxUc7aDBKVdMZWth-7" value="c_in[3]" style="text;html=1;align=center;verticalAlign=middle;whiteSpace=wrap;rounded=0;" vertex="1" parent="1">
          <mxGeometry x="1140" y="20" width="50" height="20" as="geometry" />
        </mxCell>
        <mxCell id="wd_ZxxUc7aDBKVdMZWth-250" style="edgeStyle=orthogonalEdgeStyle;rounded=0;orthogonalLoop=1;jettySize=auto;html=1;exitX=0.5;exitY=1;exitDx=0;exitDy=0;entryX=0;entryY=0.5;entryDx=0;entryDy=0;" edge="1" parent="1" source="wd_ZxxUc7aDBKVdMZWth-8" target="wd_ZxxUc7aDBKVdMZWth-194">
          <mxGeometry relative="1" as="geometry" />
        </mxCell>
        <mxCell id="wd_ZxxUc7aDBKVdMZWth-8" value="c_in[4]" style="text;html=1;align=center;verticalAlign=middle;whiteSpace=wrap;rounded=0;" vertex="1" parent="1">
          <mxGeometry x="1090" y="20" width="50" height="20" as="geometry" />
        </mxCell>
        <mxCell id="wd_ZxxUc7aDBKVdMZWth-249" style="edgeStyle=orthogonalEdgeStyle;rounded=0;orthogonalLoop=1;jettySize=auto;html=1;exitX=0.5;exitY=1;exitDx=0;exitDy=0;entryX=0;entryY=0.5;entryDx=0;entryDy=0;" edge="1" parent="1" source="wd_ZxxUc7aDBKVdMZWth-9" target="wd_ZxxUc7aDBKVdMZWth-189">
          <mxGeometry relative="1" as="geometry" />
        </mxCell>
        <mxCell id="wd_ZxxUc7aDBKVdMZWth-9" value="c_in[5]" style="text;html=1;align=center;verticalAlign=middle;whiteSpace=wrap;rounded=0;" vertex="1" parent="1">
          <mxGeometry x="1040" y="20" width="50" height="20" as="geometry" />
        </mxCell>
        <mxCell id="wd_ZxxUc7aDBKVdMZWth-248" style="edgeStyle=orthogonalEdgeStyle;rounded=0;orthogonalLoop=1;jettySize=auto;html=1;exitX=0.5;exitY=1;exitDx=0;exitDy=0;entryX=0;entryY=0.5;entryDx=0;entryDy=0;" edge="1" parent="1" source="wd_ZxxUc7aDBKVdMZWth-10" target="wd_ZxxUc7aDBKVdMZWth-190">
          <mxGeometry relative="1" as="geometry" />
        </mxCell>
        <mxCell id="wd_ZxxUc7aDBKVdMZWth-10" value="c_in[6]" style="text;html=1;align=center;verticalAlign=middle;whiteSpace=wrap;rounded=0;" vertex="1" parent="1">
          <mxGeometry x="990" y="20" width="50" height="20" as="geometry" />
        </mxCell>
        <mxCell id="wd_ZxxUc7aDBKVdMZWth-247" style="edgeStyle=orthogonalEdgeStyle;rounded=0;orthogonalLoop=1;jettySize=auto;html=1;exitX=0.5;exitY=1;exitDx=0;exitDy=0;entryX=0;entryY=0.5;entryDx=0;entryDy=0;" edge="1" parent="1" source="wd_ZxxUc7aDBKVdMZWth-11" target="wd_ZxxUc7aDBKVdMZWth-191">
          <mxGeometry relative="1" as="geometry" />
        </mxCell>
        <mxCell id="wd_ZxxUc7aDBKVdMZWth-11" value="c_in[7]" style="text;html=1;align=center;verticalAlign=middle;whiteSpace=wrap;rounded=0;" vertex="1" parent="1">
          <mxGeometry x="940" y="20" width="50" height="20" as="geometry" />
        </mxCell>
        <mxCell id="wd_ZxxUc7aDBKVdMZWth-246" style="edgeStyle=orthogonalEdgeStyle;rounded=0;orthogonalLoop=1;jettySize=auto;html=1;exitX=0.5;exitY=1;exitDx=0;exitDy=0;entryX=0;entryY=0.5;entryDx=0;entryDy=0;" edge="1" parent="1" source="wd_ZxxUc7aDBKVdMZWth-12" target="wd_ZxxUc7aDBKVdMZWth-187">
          <mxGeometry relative="1" as="geometry" />
        </mxCell>
        <mxCell id="wd_ZxxUc7aDBKVdMZWth-12" value="c_in[8]" style="text;html=1;align=center;verticalAlign=middle;whiteSpace=wrap;rounded=0;" vertex="1" parent="1">
          <mxGeometry x="890" y="20" width="50" height="20" as="geometry" />
        </mxCell>
        <mxCell id="wd_ZxxUc7aDBKVdMZWth-245" style="edgeStyle=orthogonalEdgeStyle;rounded=0;orthogonalLoop=1;jettySize=auto;html=1;exitX=0.5;exitY=1;exitDx=0;exitDy=0;entryX=0;entryY=0.5;entryDx=0;entryDy=0;" edge="1" parent="1" source="wd_ZxxUc7aDBKVdMZWth-13" target="wd_ZxxUc7aDBKVdMZWth-186">
          <mxGeometry relative="1" as="geometry" />
        </mxCell>
        <mxCell id="wd_ZxxUc7aDBKVdMZWth-13" value="c_in[9]" style="text;html=1;align=center;verticalAlign=middle;whiteSpace=wrap;rounded=0;" vertex="1" parent="1">
          <mxGeometry x="840" y="20" width="50" height="20" as="geometry" />
        </mxCell>
        <mxCell id="wd_ZxxUc7aDBKVdMZWth-244" style="edgeStyle=orthogonalEdgeStyle;rounded=0;orthogonalLoop=1;jettySize=auto;html=1;exitX=0.5;exitY=1;exitDx=0;exitDy=0;entryX=0;entryY=0.5;entryDx=0;entryDy=0;" edge="1" parent="1" source="wd_ZxxUc7aDBKVdMZWth-14" target="wd_ZxxUc7aDBKVdMZWth-185">
          <mxGeometry relative="1" as="geometry" />
        </mxCell>
        <mxCell id="wd_ZxxUc7aDBKVdMZWth-14" value="c_in[10]" style="text;html=1;align=center;verticalAlign=middle;whiteSpace=wrap;rounded=0;" vertex="1" parent="1">
          <mxGeometry x="790" y="20" width="50" height="20" as="geometry" />
        </mxCell>
        <mxCell id="wd_ZxxUc7aDBKVdMZWth-243" style="edgeStyle=orthogonalEdgeStyle;rounded=0;orthogonalLoop=1;jettySize=auto;html=1;exitX=0.5;exitY=1;exitDx=0;exitDy=0;entryX=0;entryY=0.5;entryDx=0;entryDy=0;" edge="1" parent="1" source="wd_ZxxUc7aDBKVdMZWth-15" target="wd_ZxxUc7aDBKVdMZWth-188">
          <mxGeometry relative="1" as="geometry" />
        </mxCell>
        <mxCell id="wd_ZxxUc7aDBKVdMZWth-15" value="c_in[11]" style="text;html=1;align=center;verticalAlign=middle;whiteSpace=wrap;rounded=0;" vertex="1" parent="1">
          <mxGeometry x="740" y="20" width="50" height="20" as="geometry" />
        </mxCell>
        <mxCell id="wd_ZxxUc7aDBKVdMZWth-242" style="edgeStyle=orthogonalEdgeStyle;rounded=0;orthogonalLoop=1;jettySize=auto;html=1;exitX=0.5;exitY=1;exitDx=0;exitDy=0;entryX=0;entryY=0.5;entryDx=0;entryDy=0;" edge="1" parent="1" source="wd_ZxxUc7aDBKVdMZWth-16" target="wd_ZxxUc7aDBKVdMZWth-184">
          <mxGeometry relative="1" as="geometry" />
        </mxCell>
        <mxCell id="wd_ZxxUc7aDBKVdMZWth-16" value="c_in[12]" style="text;html=1;align=center;verticalAlign=middle;whiteSpace=wrap;rounded=0;" vertex="1" parent="1">
          <mxGeometry x="690" y="20" width="50" height="20" as="geometry" />
        </mxCell>
        <mxCell id="wd_ZxxUc7aDBKVdMZWth-241" style="edgeStyle=orthogonalEdgeStyle;rounded=0;orthogonalLoop=1;jettySize=auto;html=1;exitX=0.5;exitY=1;exitDx=0;exitDy=0;entryX=0;entryY=0.5;entryDx=0;entryDy=0;" edge="1" parent="1" source="wd_ZxxUc7aDBKVdMZWth-17" target="wd_ZxxUc7aDBKVdMZWth-183">
          <mxGeometry relative="1" as="geometry" />
        </mxCell>
        <mxCell id="wd_ZxxUc7aDBKVdMZWth-17" value="c_in[13]" style="text;html=1;align=center;verticalAlign=middle;whiteSpace=wrap;rounded=0;" vertex="1" parent="1">
          <mxGeometry x="640" y="20" width="50" height="20" as="geometry" />
        </mxCell>
        <mxCell id="wd_ZxxUc7aDBKVdMZWth-240" style="edgeStyle=orthogonalEdgeStyle;rounded=0;orthogonalLoop=1;jettySize=auto;html=1;exitX=0.5;exitY=1;exitDx=0;exitDy=0;entryX=0;entryY=0.5;entryDx=0;entryDy=0;" edge="1" parent="1" source="wd_ZxxUc7aDBKVdMZWth-18" target="wd_ZxxUc7aDBKVdMZWth-182">
          <mxGeometry relative="1" as="geometry" />
        </mxCell>
        <mxCell id="wd_ZxxUc7aDBKVdMZWth-18" value="c_in[14]" style="text;html=1;align=center;verticalAlign=middle;whiteSpace=wrap;rounded=0;" vertex="1" parent="1">
          <mxGeometry x="590" y="20" width="50" height="20" as="geometry" />
        </mxCell>
        <mxCell id="wd_ZxxUc7aDBKVdMZWth-239" style="edgeStyle=orthogonalEdgeStyle;rounded=0;orthogonalLoop=1;jettySize=auto;html=1;exitX=0.5;exitY=1;exitDx=0;exitDy=0;entryX=0;entryY=0.5;entryDx=0;entryDy=0;" edge="1" parent="1" source="wd_ZxxUc7aDBKVdMZWth-19" target="wd_ZxxUc7aDBKVdMZWth-181">
          <mxGeometry relative="1" as="geometry" />
        </mxCell>
        <mxCell id="wd_ZxxUc7aDBKVdMZWth-19" value="c_in[15]" style="text;html=1;align=center;verticalAlign=middle;whiteSpace=wrap;rounded=0;" vertex="1" parent="1">
          <mxGeometry x="540" y="20" width="50" height="20" as="geometry" />
        </mxCell>
        <mxCell id="wd_ZxxUc7aDBKVdMZWth-238" style="edgeStyle=orthogonalEdgeStyle;rounded=0;orthogonalLoop=1;jettySize=auto;html=1;exitX=0.5;exitY=1;exitDx=0;exitDy=0;entryX=0;entryY=0.5;entryDx=0;entryDy=0;" edge="1" parent="1" source="wd_ZxxUc7aDBKVdMZWth-20" target="wd_ZxxUc7aDBKVdMZWth-180">
          <mxGeometry relative="1" as="geometry" />
        </mxCell>
        <mxCell id="wd_ZxxUc7aDBKVdMZWth-20" value="c_in[16]" style="text;html=1;align=center;verticalAlign=middle;whiteSpace=wrap;rounded=0;" vertex="1" parent="1">
          <mxGeometry x="490" y="20" width="50" height="20" as="geometry" />
        </mxCell>
        <mxCell id="wd_ZxxUc7aDBKVdMZWth-237" style="edgeStyle=orthogonalEdgeStyle;rounded=0;orthogonalLoop=1;jettySize=auto;html=1;exitX=0.5;exitY=1;exitDx=0;exitDy=0;entryX=0;entryY=0.5;entryDx=0;entryDy=0;" edge="1" parent="1" source="wd_ZxxUc7aDBKVdMZWth-21" target="wd_ZxxUc7aDBKVdMZWth-179">
          <mxGeometry relative="1" as="geometry" />
        </mxCell>
        <mxCell id="wd_ZxxUc7aDBKVdMZWth-21" value="c_in[17]" style="text;html=1;align=center;verticalAlign=middle;whiteSpace=wrap;rounded=0;" vertex="1" parent="1">
          <mxGeometry x="440" y="20" width="50" height="20" as="geometry" />
        </mxCell>
        <mxCell id="wd_ZxxUc7aDBKVdMZWth-236" style="edgeStyle=orthogonalEdgeStyle;rounded=0;orthogonalLoop=1;jettySize=auto;html=1;exitX=0.5;exitY=1;exitDx=0;exitDy=0;entryX=0;entryY=0.5;entryDx=0;entryDy=0;" edge="1" parent="1" source="wd_ZxxUc7aDBKVdMZWth-22" target="wd_ZxxUc7aDBKVdMZWth-178">
          <mxGeometry relative="1" as="geometry" />
        </mxCell>
        <mxCell id="wd_ZxxUc7aDBKVdMZWth-22" value="c_in[18]" style="text;html=1;align=center;verticalAlign=middle;whiteSpace=wrap;rounded=0;" vertex="1" parent="1">
          <mxGeometry x="390" y="20" width="50" height="20" as="geometry" />
        </mxCell>
        <mxCell id="wd_ZxxUc7aDBKVdMZWth-235" style="edgeStyle=orthogonalEdgeStyle;rounded=0;orthogonalLoop=1;jettySize=auto;html=1;exitX=0.5;exitY=1;exitDx=0;exitDy=0;entryX=0;entryY=0.5;entryDx=0;entryDy=0;" edge="1" parent="1" source="wd_ZxxUc7aDBKVdMZWth-23" target="wd_ZxxUc7aDBKVdMZWth-177">
          <mxGeometry relative="1" as="geometry" />
        </mxCell>
        <mxCell id="wd_ZxxUc7aDBKVdMZWth-23" value="c_in[19]" style="text;html=1;align=center;verticalAlign=middle;whiteSpace=wrap;rounded=0;" vertex="1" parent="1">
          <mxGeometry x="340" y="20" width="50" height="20" as="geometry" />
        </mxCell>
        <mxCell id="wd_ZxxUc7aDBKVdMZWth-234" style="edgeStyle=orthogonalEdgeStyle;rounded=0;orthogonalLoop=1;jettySize=auto;html=1;exitX=0.5;exitY=1;exitDx=0;exitDy=0;entryX=0;entryY=0.5;entryDx=0;entryDy=0;" edge="1" parent="1" source="wd_ZxxUc7aDBKVdMZWth-24" target="wd_ZxxUc7aDBKVdMZWth-176">
          <mxGeometry relative="1" as="geometry" />
        </mxCell>
        <mxCell id="wd_ZxxUc7aDBKVdMZWth-24" value="c_in[20]" style="text;html=1;align=center;verticalAlign=middle;whiteSpace=wrap;rounded=0;" vertex="1" parent="1">
          <mxGeometry x="290" y="20" width="50" height="20" as="geometry" />
        </mxCell>
        <mxCell id="wd_ZxxUc7aDBKVdMZWth-233" style="edgeStyle=orthogonalEdgeStyle;rounded=0;orthogonalLoop=1;jettySize=auto;html=1;exitX=0.5;exitY=1;exitDx=0;exitDy=0;entryX=0;entryY=0.5;entryDx=0;entryDy=0;" edge="1" parent="1" source="wd_ZxxUc7aDBKVdMZWth-25" target="wd_ZxxUc7aDBKVdMZWth-175">
          <mxGeometry relative="1" as="geometry" />
        </mxCell>
        <mxCell id="wd_ZxxUc7aDBKVdMZWth-25" value="c_in[21]" style="text;html=1;align=center;verticalAlign=middle;whiteSpace=wrap;rounded=0;" vertex="1" parent="1">
          <mxGeometry x="240" y="20" width="50" height="20" as="geometry" />
        </mxCell>
        <mxCell id="wd_ZxxUc7aDBKVdMZWth-230" style="edgeStyle=orthogonalEdgeStyle;rounded=0;orthogonalLoop=1;jettySize=auto;html=1;exitX=0.5;exitY=1;exitDx=0;exitDy=0;entryX=0;entryY=0.5;entryDx=0;entryDy=0;" edge="1" parent="1" source="wd_ZxxUc7aDBKVdMZWth-26" target="wd_ZxxUc7aDBKVdMZWth-174">
          <mxGeometry relative="1" as="geometry" />
        </mxCell>
        <mxCell id="wd_ZxxUc7aDBKVdMZWth-26" value="c_in[22]" style="text;html=1;align=center;verticalAlign=middle;whiteSpace=wrap;rounded=0;" vertex="1" parent="1">
          <mxGeometry x="190" y="20" width="50" height="20" as="geometry" />
        </mxCell>
        <mxCell id="wd_ZxxUc7aDBKVdMZWth-229" style="edgeStyle=orthogonalEdgeStyle;rounded=0;orthogonalLoop=1;jettySize=auto;html=1;exitX=0.5;exitY=1;exitDx=0;exitDy=0;entryX=0;entryY=0.5;entryDx=0;entryDy=0;" edge="1" parent="1" source="wd_ZxxUc7aDBKVdMZWth-27" target="wd_ZxxUc7aDBKVdMZWth-173">
          <mxGeometry relative="1" as="geometry" />
        </mxCell>
        <mxCell id="wd_ZxxUc7aDBKVdMZWth-27" value="c_in[23]" style="text;html=1;align=center;verticalAlign=middle;whiteSpace=wrap;rounded=0;" vertex="1" parent="1">
          <mxGeometry x="140" y="20" width="50" height="20" as="geometry" />
        </mxCell>
        <mxCell id="wd_ZxxUc7aDBKVdMZWth-56" value="c_shift[27]" style="text;html=1;align=center;verticalAlign=middle;whiteSpace=wrap;rounded=0;" vertex="1" parent="1">
          <mxGeometry x="1370" y="90" width="60" height="30" as="geometry" />
        </mxCell>
        <mxCell id="wd_ZxxUc7aDBKVdMZWth-57" value="c_shift[26]" style="text;html=1;align=center;verticalAlign=middle;whiteSpace=wrap;rounded=0;" vertex="1" parent="1">
          <mxGeometry x="1370" y="110" width="60" height="30" as="geometry" />
        </mxCell>
        <mxCell id="wd_ZxxUc7aDBKVdMZWth-58" value="c_shift[25]" style="text;html=1;align=center;verticalAlign=middle;whiteSpace=wrap;rounded=0;" vertex="1" parent="1">
          <mxGeometry x="1370" y="130" width="60" height="30" as="geometry" />
        </mxCell>
        <mxCell id="wd_ZxxUc7aDBKVdMZWth-59" value="c_shift[24]" style="text;html=1;align=center;verticalAlign=middle;whiteSpace=wrap;rounded=0;" vertex="1" parent="1">
          <mxGeometry x="1370" y="150" width="60" height="30" as="geometry" />
        </mxCell>
        <mxCell id="wd_ZxxUc7aDBKVdMZWth-60" value="c_shift[20]" style="text;html=1;align=center;verticalAlign=middle;whiteSpace=wrap;rounded=0;" vertex="1" parent="1">
          <mxGeometry x="1370" y="230" width="60" height="30" as="geometry" />
        </mxCell>
        <mxCell id="wd_ZxxUc7aDBKVdMZWth-61" value="c_shift[23]" style="text;html=1;align=center;verticalAlign=middle;whiteSpace=wrap;rounded=0;" vertex="1" parent="1">
          <mxGeometry x="1370" y="170" width="60" height="30" as="geometry" />
        </mxCell>
        <mxCell id="wd_ZxxUc7aDBKVdMZWth-62" value="c_shift[21]" style="text;html=1;align=center;verticalAlign=middle;whiteSpace=wrap;rounded=0;" vertex="1" parent="1">
          <mxGeometry x="1370" y="210" width="60" height="30" as="geometry" />
        </mxCell>
        <mxCell id="wd_ZxxUc7aDBKVdMZWth-63" value="c_shift[22]" style="text;html=1;align=center;verticalAlign=middle;whiteSpace=wrap;rounded=0;" vertex="1" parent="1">
          <mxGeometry x="1370" y="190" width="60" height="30" as="geometry" />
        </mxCell>
        <mxCell id="wd_ZxxUc7aDBKVdMZWth-64" value="c_shift[16]" style="text;html=1;align=center;verticalAlign=middle;whiteSpace=wrap;rounded=0;" vertex="1" parent="1">
          <mxGeometry x="1370" y="310" width="60" height="30" as="geometry" />
        </mxCell>
        <mxCell id="wd_ZxxUc7aDBKVdMZWth-65" value="c_shift[18]" style="text;html=1;align=center;verticalAlign=middle;whiteSpace=wrap;rounded=0;" vertex="1" parent="1">
          <mxGeometry x="1370" y="270" width="60" height="30" as="geometry" />
        </mxCell>
        <mxCell id="wd_ZxxUc7aDBKVdMZWth-66" value="c_shift[17]" style="text;html=1;align=center;verticalAlign=middle;whiteSpace=wrap;rounded=0;" vertex="1" parent="1">
          <mxGeometry x="1370" y="290" width="60" height="30" as="geometry" />
        </mxCell>
        <mxCell id="wd_ZxxUc7aDBKVdMZWth-67" value="c_shift[14]" style="text;html=1;align=center;verticalAlign=middle;whiteSpace=wrap;rounded=0;" vertex="1" parent="1">
          <mxGeometry x="1370" y="350" width="60" height="30" as="geometry" />
        </mxCell>
        <mxCell id="wd_ZxxUc7aDBKVdMZWth-68" value="c_shift[15]" style="text;html=1;align=center;verticalAlign=middle;whiteSpace=wrap;rounded=0;" vertex="1" parent="1">
          <mxGeometry x="1370" y="330" width="60" height="30" as="geometry" />
        </mxCell>
        <mxCell id="wd_ZxxUc7aDBKVdMZWth-69" value="c_shift[13]" style="text;html=1;align=center;verticalAlign=middle;whiteSpace=wrap;rounded=0;" vertex="1" parent="1">
          <mxGeometry x="1370" y="370" width="60" height="30" as="geometry" />
        </mxCell>
        <mxCell id="wd_ZxxUc7aDBKVdMZWth-70" value="c_shift[10]" style="text;html=1;align=center;verticalAlign=middle;whiteSpace=wrap;rounded=0;" vertex="1" parent="1">
          <mxGeometry x="1370" y="430" width="60" height="30" as="geometry" />
        </mxCell>
        <mxCell id="wd_ZxxUc7aDBKVdMZWth-71" value="c_shift[11]" style="text;html=1;align=center;verticalAlign=middle;whiteSpace=wrap;rounded=0;" vertex="1" parent="1">
          <mxGeometry x="1370" y="410" width="60" height="30" as="geometry" />
        </mxCell>
        <mxCell id="wd_ZxxUc7aDBKVdMZWth-72" value="c_shift[12]" style="text;html=1;align=center;verticalAlign=middle;whiteSpace=wrap;rounded=0;" vertex="1" parent="1">
          <mxGeometry x="1370" y="390" width="60" height="30" as="geometry" />
        </mxCell>
        <mxCell id="wd_ZxxUc7aDBKVdMZWth-73" value="c_shift[8]" style="text;html=1;align=center;verticalAlign=middle;whiteSpace=wrap;rounded=0;" vertex="1" parent="1">
          <mxGeometry x="1370" y="470" width="60" height="30" as="geometry" />
        </mxCell>
        <mxCell id="wd_ZxxUc7aDBKVdMZWth-74" value="c_shift[9]" style="text;html=1;align=center;verticalAlign=middle;whiteSpace=wrap;rounded=0;" vertex="1" parent="1">
          <mxGeometry x="1370" y="450" width="60" height="30" as="geometry" />
        </mxCell>
        <mxCell id="wd_ZxxUc7aDBKVdMZWth-75" value="c_shift[3]" style="text;html=1;align=center;verticalAlign=middle;whiteSpace=wrap;rounded=0;" vertex="1" parent="1">
          <mxGeometry x="1370" y="570" width="60" height="30" as="geometry" />
        </mxCell>
        <mxCell id="wd_ZxxUc7aDBKVdMZWth-76" value="c_shift[1]" style="text;html=1;align=center;verticalAlign=middle;whiteSpace=wrap;rounded=0;" vertex="1" parent="1">
          <mxGeometry x="1370" y="610" width="60" height="30" as="geometry" />
        </mxCell>
        <mxCell id="wd_ZxxUc7aDBKVdMZWth-77" value="c_shift[2]" style="text;html=1;align=center;verticalAlign=middle;whiteSpace=wrap;rounded=0;" vertex="1" parent="1">
          <mxGeometry x="1370" y="590" width="60" height="30" as="geometry" />
        </mxCell>
        <mxCell id="wd_ZxxUc7aDBKVdMZWth-78" value="c_shift[0]" style="text;html=1;align=center;verticalAlign=middle;whiteSpace=wrap;rounded=0;" vertex="1" parent="1">
          <mxGeometry x="1370" y="630" width="60" height="30" as="geometry" />
        </mxCell>
        <mxCell id="wd_ZxxUc7aDBKVdMZWth-79" value="c_shift[4]" style="text;html=1;align=center;verticalAlign=middle;whiteSpace=wrap;rounded=0;" vertex="1" parent="1">
          <mxGeometry x="1370" y="550" width="60" height="30" as="geometry" />
        </mxCell>
        <mxCell id="wd_ZxxUc7aDBKVdMZWth-80" value="c_shift[5]" style="text;html=1;align=center;verticalAlign=middle;whiteSpace=wrap;rounded=0;" vertex="1" parent="1">
          <mxGeometry x="1370" y="530" width="60" height="30" as="geometry" />
        </mxCell>
        <mxCell id="wd_ZxxUc7aDBKVdMZWth-81" value="c_shift[6]" style="text;html=1;align=center;verticalAlign=middle;whiteSpace=wrap;rounded=0;" vertex="1" parent="1">
          <mxGeometry x="1370" y="510" width="60" height="30" as="geometry" />
        </mxCell>
        <mxCell id="wd_ZxxUc7aDBKVdMZWth-82" value="c_shift[7]" style="text;html=1;align=center;verticalAlign=middle;whiteSpace=wrap;rounded=0;" vertex="1" parent="1">
          <mxGeometry x="1370" y="490" width="60" height="30" as="geometry" />
        </mxCell>
        <mxCell id="wd_ZxxUc7aDBKVdMZWth-83" value="c_shift[19]" style="text;html=1;align=center;verticalAlign=middle;whiteSpace=wrap;rounded=0;" vertex="1" parent="1">
          <mxGeometry x="1370" y="250" width="60" height="30" as="geometry" />
        </mxCell>
        <mxCell id="wd_ZxxUc7aDBKVdMZWth-335" style="edgeStyle=orthogonalEdgeStyle;rounded=0;orthogonalLoop=1;jettySize=auto;html=1;exitX=0.5;exitY=0;exitDx=0;exitDy=0;entryX=0;entryY=0.5;entryDx=0;entryDy=0;" edge="1" parent="1" source="wd_ZxxUc7aDBKVdMZWth-113" target="wd_ZxxUc7aDBKVdMZWth-199">
          <mxGeometry relative="1" as="geometry" />
        </mxCell>
        <mxCell id="wd_ZxxUc7aDBKVdMZWth-113" value="d_in[25]" style="text;html=1;align=center;verticalAlign=middle;whiteSpace=wrap;rounded=0;" vertex="1" parent="1">
          <mxGeometry x="-20" y="700" width="50" height="20" as="geometry" />
        </mxCell>
        <mxCell id="wd_ZxxUc7aDBKVdMZWth-336" style="edgeStyle=orthogonalEdgeStyle;rounded=0;orthogonalLoop=1;jettySize=auto;html=1;exitX=0.5;exitY=0;exitDx=0;exitDy=0;entryX=0;entryY=0.5;entryDx=0;entryDy=0;" edge="1" parent="1" source="wd_ZxxUc7aDBKVdMZWth-114" target="wd_ZxxUc7aDBKVdMZWth-200">
          <mxGeometry relative="1" as="geometry" />
        </mxCell>
        <mxCell id="wd_ZxxUc7aDBKVdMZWth-114" value="d_in[24]" style="text;html=1;align=center;verticalAlign=middle;whiteSpace=wrap;rounded=0;" vertex="1" parent="1">
          <mxGeometry x="30" y="700" width="50" height="20" as="geometry" />
        </mxCell>
        <mxCell id="wd_ZxxUc7aDBKVdMZWth-360" style="edgeStyle=orthogonalEdgeStyle;rounded=0;orthogonalLoop=1;jettySize=auto;html=1;exitX=0.5;exitY=0;exitDx=0;exitDy=0;entryX=0;entryY=0.5;entryDx=0;entryDy=0;" edge="1" parent="1" source="wd_ZxxUc7aDBKVdMZWth-115" target="wd_ZxxUc7aDBKVdMZWth-224">
          <mxGeometry relative="1" as="geometry" />
        </mxCell>
        <mxCell id="wd_ZxxUc7aDBKVdMZWth-115" value="d_in[0]" style="text;html=1;align=center;verticalAlign=middle;whiteSpace=wrap;rounded=0;" vertex="1" parent="1">
          <mxGeometry x="1230" y="700" width="50" height="20" as="geometry" />
        </mxCell>
        <mxCell id="wd_ZxxUc7aDBKVdMZWth-334" style="edgeStyle=orthogonalEdgeStyle;rounded=0;orthogonalLoop=1;jettySize=auto;html=1;exitX=0.5;exitY=0;exitDx=0;exitDy=0;entryX=0;entryY=0.5;entryDx=0;entryDy=0;" edge="1" parent="1" source="wd_ZxxUc7aDBKVdMZWth-116" target="wd_ZxxUc7aDBKVdMZWth-198">
          <mxGeometry relative="1" as="geometry" />
        </mxCell>
        <mxCell id="wd_ZxxUc7aDBKVdMZWth-116" value="d_in[26]" style="text;html=1;align=center;verticalAlign=middle;whiteSpace=wrap;rounded=0;" vertex="1" parent="1">
          <mxGeometry x="-70" y="700" width="50" height="20" as="geometry" />
        </mxCell>
        <mxCell id="wd_ZxxUc7aDBKVdMZWth-359" style="edgeStyle=orthogonalEdgeStyle;rounded=0;orthogonalLoop=1;jettySize=auto;html=1;exitX=0.5;exitY=0;exitDx=0;exitDy=0;entryX=0;entryY=0.5;entryDx=0;entryDy=0;" edge="1" parent="1" source="wd_ZxxUc7aDBKVdMZWth-117" target="wd_ZxxUc7aDBKVdMZWth-223">
          <mxGeometry relative="1" as="geometry" />
        </mxCell>
        <mxCell id="wd_ZxxUc7aDBKVdMZWth-117" value="d_in[1]" style="text;html=1;align=center;verticalAlign=middle;whiteSpace=wrap;rounded=0;" vertex="1" parent="1">
          <mxGeometry x="1180" y="700" width="50" height="20" as="geometry" />
        </mxCell>
        <mxCell id="wd_ZxxUc7aDBKVdMZWth-358" style="edgeStyle=orthogonalEdgeStyle;rounded=0;orthogonalLoop=1;jettySize=auto;html=1;exitX=0.5;exitY=0;exitDx=0;exitDy=0;entryX=0;entryY=0.5;entryDx=0;entryDy=0;" edge="1" parent="1" source="wd_ZxxUc7aDBKVdMZWth-118" target="wd_ZxxUc7aDBKVdMZWth-220">
          <mxGeometry relative="1" as="geometry" />
        </mxCell>
        <mxCell id="wd_ZxxUc7aDBKVdMZWth-118" value="d_in[2]" style="text;html=1;align=center;verticalAlign=middle;whiteSpace=wrap;rounded=0;" vertex="1" parent="1">
          <mxGeometry x="1130" y="700" width="50" height="20" as="geometry" />
        </mxCell>
        <mxCell id="wd_ZxxUc7aDBKVdMZWth-357" style="edgeStyle=orthogonalEdgeStyle;rounded=0;orthogonalLoop=1;jettySize=auto;html=1;exitX=0.5;exitY=0;exitDx=0;exitDy=0;entryX=0;entryY=0.5;entryDx=0;entryDy=0;" edge="1" parent="1" source="wd_ZxxUc7aDBKVdMZWth-119" target="wd_ZxxUc7aDBKVdMZWth-221">
          <mxGeometry relative="1" as="geometry" />
        </mxCell>
        <mxCell id="wd_ZxxUc7aDBKVdMZWth-119" value="d_in[3]" style="text;html=1;align=center;verticalAlign=middle;whiteSpace=wrap;rounded=0;" vertex="1" parent="1">
          <mxGeometry x="1080" y="700" width="50" height="20" as="geometry" />
        </mxCell>
        <mxCell id="wd_ZxxUc7aDBKVdMZWth-356" style="edgeStyle=orthogonalEdgeStyle;rounded=0;orthogonalLoop=1;jettySize=auto;html=1;exitX=0.5;exitY=0;exitDx=0;exitDy=0;entryX=0;entryY=0.5;entryDx=0;entryDy=0;" edge="1" parent="1" source="wd_ZxxUc7aDBKVdMZWth-120" target="wd_ZxxUc7aDBKVdMZWth-222">
          <mxGeometry relative="1" as="geometry" />
        </mxCell>
        <mxCell id="wd_ZxxUc7aDBKVdMZWth-120" value="d_in[4]" style="text;html=1;align=center;verticalAlign=middle;whiteSpace=wrap;rounded=0;" vertex="1" parent="1">
          <mxGeometry x="1030" y="700" width="50" height="20" as="geometry" />
        </mxCell>
        <mxCell id="wd_ZxxUc7aDBKVdMZWth-355" style="edgeStyle=orthogonalEdgeStyle;rounded=0;orthogonalLoop=1;jettySize=auto;html=1;exitX=0.5;exitY=0;exitDx=0;exitDy=0;entryX=0;entryY=0.5;entryDx=0;entryDy=0;" edge="1" parent="1" source="wd_ZxxUc7aDBKVdMZWth-121" target="wd_ZxxUc7aDBKVdMZWth-217">
          <mxGeometry relative="1" as="geometry" />
        </mxCell>
        <mxCell id="wd_ZxxUc7aDBKVdMZWth-121" value="d_in[5]" style="text;html=1;align=center;verticalAlign=middle;whiteSpace=wrap;rounded=0;" vertex="1" parent="1">
          <mxGeometry x="980" y="700" width="50" height="20" as="geometry" />
        </mxCell>
        <mxCell id="wd_ZxxUc7aDBKVdMZWth-354" style="edgeStyle=orthogonalEdgeStyle;rounded=0;orthogonalLoop=1;jettySize=auto;html=1;exitX=0.5;exitY=0;exitDx=0;exitDy=0;entryX=0;entryY=0.5;entryDx=0;entryDy=0;" edge="1" parent="1" source="wd_ZxxUc7aDBKVdMZWth-122" target="wd_ZxxUc7aDBKVdMZWth-218">
          <mxGeometry relative="1" as="geometry" />
        </mxCell>
        <mxCell id="wd_ZxxUc7aDBKVdMZWth-122" value="d_in[6]" style="text;html=1;align=center;verticalAlign=middle;whiteSpace=wrap;rounded=0;" vertex="1" parent="1">
          <mxGeometry x="930" y="700" width="50" height="20" as="geometry" />
        </mxCell>
        <mxCell id="wd_ZxxUc7aDBKVdMZWth-353" style="edgeStyle=orthogonalEdgeStyle;rounded=0;orthogonalLoop=1;jettySize=auto;html=1;exitX=0.5;exitY=0;exitDx=0;exitDy=0;entryX=0;entryY=0.5;entryDx=0;entryDy=0;" edge="1" parent="1" source="wd_ZxxUc7aDBKVdMZWth-123" target="wd_ZxxUc7aDBKVdMZWth-219">
          <mxGeometry relative="1" as="geometry" />
        </mxCell>
        <mxCell id="wd_ZxxUc7aDBKVdMZWth-123" value="d_in[7]" style="text;html=1;align=center;verticalAlign=middle;whiteSpace=wrap;rounded=0;" vertex="1" parent="1">
          <mxGeometry x="880" y="700" width="50" height="20" as="geometry" />
        </mxCell>
        <mxCell id="wd_ZxxUc7aDBKVdMZWth-352" style="edgeStyle=orthogonalEdgeStyle;rounded=0;orthogonalLoop=1;jettySize=auto;html=1;exitX=0.5;exitY=0;exitDx=0;exitDy=0;entryX=0;entryY=0.5;entryDx=0;entryDy=0;" edge="1" parent="1" source="wd_ZxxUc7aDBKVdMZWth-124" target="wd_ZxxUc7aDBKVdMZWth-215">
          <mxGeometry relative="1" as="geometry" />
        </mxCell>
        <mxCell id="wd_ZxxUc7aDBKVdMZWth-124" value="d_in[8]" style="text;html=1;align=center;verticalAlign=middle;whiteSpace=wrap;rounded=0;" vertex="1" parent="1">
          <mxGeometry x="830" y="700" width="50" height="20" as="geometry" />
        </mxCell>
        <mxCell id="wd_ZxxUc7aDBKVdMZWth-351" style="edgeStyle=orthogonalEdgeStyle;rounded=0;orthogonalLoop=1;jettySize=auto;html=1;exitX=0.5;exitY=0;exitDx=0;exitDy=0;entryX=0;entryY=0.5;entryDx=0;entryDy=0;" edge="1" parent="1" source="wd_ZxxUc7aDBKVdMZWth-125" target="wd_ZxxUc7aDBKVdMZWth-214">
          <mxGeometry relative="1" as="geometry" />
        </mxCell>
        <mxCell id="wd_ZxxUc7aDBKVdMZWth-125" value="d_in[9]" style="text;html=1;align=center;verticalAlign=middle;whiteSpace=wrap;rounded=0;" vertex="1" parent="1">
          <mxGeometry x="780" y="700" width="50" height="20" as="geometry" />
        </mxCell>
        <mxCell id="wd_ZxxUc7aDBKVdMZWth-350" style="edgeStyle=orthogonalEdgeStyle;rounded=0;orthogonalLoop=1;jettySize=auto;html=1;exitX=0.5;exitY=0;exitDx=0;exitDy=0;entryX=0;entryY=0.5;entryDx=0;entryDy=0;" edge="1" parent="1" source="wd_ZxxUc7aDBKVdMZWth-126" target="wd_ZxxUc7aDBKVdMZWth-213">
          <mxGeometry relative="1" as="geometry" />
        </mxCell>
        <mxCell id="wd_ZxxUc7aDBKVdMZWth-126" value="d_in[10]" style="text;html=1;align=center;verticalAlign=middle;whiteSpace=wrap;rounded=0;" vertex="1" parent="1">
          <mxGeometry x="730" y="700" width="50" height="20" as="geometry" />
        </mxCell>
        <mxCell id="wd_ZxxUc7aDBKVdMZWth-349" style="edgeStyle=orthogonalEdgeStyle;rounded=0;orthogonalLoop=1;jettySize=auto;html=1;exitX=0.5;exitY=0;exitDx=0;exitDy=0;entryX=0;entryY=0.5;entryDx=0;entryDy=0;" edge="1" parent="1" source="wd_ZxxUc7aDBKVdMZWth-127" target="wd_ZxxUc7aDBKVdMZWth-216">
          <mxGeometry relative="1" as="geometry" />
        </mxCell>
        <mxCell id="wd_ZxxUc7aDBKVdMZWth-127" value="d_in[11]" style="text;html=1;align=center;verticalAlign=middle;whiteSpace=wrap;rounded=0;" vertex="1" parent="1">
          <mxGeometry x="680" y="700" width="50" height="20" as="geometry" />
        </mxCell>
        <mxCell id="wd_ZxxUc7aDBKVdMZWth-348" style="edgeStyle=orthogonalEdgeStyle;rounded=0;orthogonalLoop=1;jettySize=auto;html=1;exitX=0.5;exitY=0;exitDx=0;exitDy=0;entryX=0;entryY=0.5;entryDx=0;entryDy=0;" edge="1" parent="1" source="wd_ZxxUc7aDBKVdMZWth-128" target="wd_ZxxUc7aDBKVdMZWth-212">
          <mxGeometry relative="1" as="geometry" />
        </mxCell>
        <mxCell id="wd_ZxxUc7aDBKVdMZWth-128" value="d_in[12]" style="text;html=1;align=center;verticalAlign=middle;whiteSpace=wrap;rounded=0;" vertex="1" parent="1">
          <mxGeometry x="630" y="700" width="50" height="20" as="geometry" />
        </mxCell>
        <mxCell id="wd_ZxxUc7aDBKVdMZWth-347" style="edgeStyle=orthogonalEdgeStyle;rounded=0;orthogonalLoop=1;jettySize=auto;html=1;exitX=0.5;exitY=0;exitDx=0;exitDy=0;entryX=0;entryY=0.5;entryDx=0;entryDy=0;" edge="1" parent="1" source="wd_ZxxUc7aDBKVdMZWth-129" target="wd_ZxxUc7aDBKVdMZWth-211">
          <mxGeometry relative="1" as="geometry" />
        </mxCell>
        <mxCell id="wd_ZxxUc7aDBKVdMZWth-129" value="d_in[13]" style="text;html=1;align=center;verticalAlign=middle;whiteSpace=wrap;rounded=0;" vertex="1" parent="1">
          <mxGeometry x="580" y="700" width="50" height="20" as="geometry" />
        </mxCell>
        <mxCell id="wd_ZxxUc7aDBKVdMZWth-346" style="edgeStyle=orthogonalEdgeStyle;rounded=0;orthogonalLoop=1;jettySize=auto;html=1;exitX=0.5;exitY=0;exitDx=0;exitDy=0;entryX=0;entryY=0.5;entryDx=0;entryDy=0;" edge="1" parent="1" source="wd_ZxxUc7aDBKVdMZWth-130" target="wd_ZxxUc7aDBKVdMZWth-210">
          <mxGeometry relative="1" as="geometry" />
        </mxCell>
        <mxCell id="wd_ZxxUc7aDBKVdMZWth-130" value="d_in[14]" style="text;html=1;align=center;verticalAlign=middle;whiteSpace=wrap;rounded=0;" vertex="1" parent="1">
          <mxGeometry x="530" y="700" width="50" height="20" as="geometry" />
        </mxCell>
        <mxCell id="wd_ZxxUc7aDBKVdMZWth-345" style="edgeStyle=orthogonalEdgeStyle;rounded=0;orthogonalLoop=1;jettySize=auto;html=1;exitX=0.5;exitY=0;exitDx=0;exitDy=0;entryX=0;entryY=0.5;entryDx=0;entryDy=0;" edge="1" parent="1" source="wd_ZxxUc7aDBKVdMZWth-131" target="wd_ZxxUc7aDBKVdMZWth-209">
          <mxGeometry relative="1" as="geometry" />
        </mxCell>
        <mxCell id="wd_ZxxUc7aDBKVdMZWth-131" value="d_in[15]" style="text;html=1;align=center;verticalAlign=middle;whiteSpace=wrap;rounded=0;" vertex="1" parent="1">
          <mxGeometry x="480" y="700" width="50" height="20" as="geometry" />
        </mxCell>
        <mxCell id="wd_ZxxUc7aDBKVdMZWth-344" style="edgeStyle=orthogonalEdgeStyle;rounded=0;orthogonalLoop=1;jettySize=auto;html=1;exitX=0.5;exitY=0;exitDx=0;exitDy=0;entryX=0;entryY=0.5;entryDx=0;entryDy=0;" edge="1" parent="1" source="wd_ZxxUc7aDBKVdMZWth-132" target="wd_ZxxUc7aDBKVdMZWth-208">
          <mxGeometry relative="1" as="geometry" />
        </mxCell>
        <mxCell id="wd_ZxxUc7aDBKVdMZWth-132" value="d_in[16]" style="text;html=1;align=center;verticalAlign=middle;whiteSpace=wrap;rounded=0;" vertex="1" parent="1">
          <mxGeometry x="430" y="700" width="50" height="20" as="geometry" />
        </mxCell>
        <mxCell id="wd_ZxxUc7aDBKVdMZWth-343" style="edgeStyle=orthogonalEdgeStyle;rounded=0;orthogonalLoop=1;jettySize=auto;html=1;exitX=0.5;exitY=0;exitDx=0;exitDy=0;entryX=0;entryY=0.5;entryDx=0;entryDy=0;" edge="1" parent="1" source="wd_ZxxUc7aDBKVdMZWth-133" target="wd_ZxxUc7aDBKVdMZWth-207">
          <mxGeometry relative="1" as="geometry" />
        </mxCell>
        <mxCell id="wd_ZxxUc7aDBKVdMZWth-133" value="d_in[17]" style="text;html=1;align=center;verticalAlign=middle;whiteSpace=wrap;rounded=0;" vertex="1" parent="1">
          <mxGeometry x="380" y="700" width="50" height="20" as="geometry" />
        </mxCell>
        <mxCell id="wd_ZxxUc7aDBKVdMZWth-342" style="edgeStyle=orthogonalEdgeStyle;rounded=0;orthogonalLoop=1;jettySize=auto;html=1;exitX=0.5;exitY=0;exitDx=0;exitDy=0;entryX=0;entryY=0.5;entryDx=0;entryDy=0;" edge="1" parent="1" source="wd_ZxxUc7aDBKVdMZWth-134" target="wd_ZxxUc7aDBKVdMZWth-206">
          <mxGeometry relative="1" as="geometry" />
        </mxCell>
        <mxCell id="wd_ZxxUc7aDBKVdMZWth-134" value="d_in[18]" style="text;html=1;align=center;verticalAlign=middle;whiteSpace=wrap;rounded=0;" vertex="1" parent="1">
          <mxGeometry x="330" y="700" width="50" height="20" as="geometry" />
        </mxCell>
        <mxCell id="wd_ZxxUc7aDBKVdMZWth-341" style="edgeStyle=orthogonalEdgeStyle;rounded=0;orthogonalLoop=1;jettySize=auto;html=1;exitX=0.5;exitY=0;exitDx=0;exitDy=0;entryX=0;entryY=0.5;entryDx=0;entryDy=0;" edge="1" parent="1" source="wd_ZxxUc7aDBKVdMZWth-135" target="wd_ZxxUc7aDBKVdMZWth-205">
          <mxGeometry relative="1" as="geometry" />
        </mxCell>
        <mxCell id="wd_ZxxUc7aDBKVdMZWth-135" value="d_in[19]" style="text;html=1;align=center;verticalAlign=middle;whiteSpace=wrap;rounded=0;" vertex="1" parent="1">
          <mxGeometry x="280" y="700" width="50" height="20" as="geometry" />
        </mxCell>
        <mxCell id="wd_ZxxUc7aDBKVdMZWth-340" style="edgeStyle=orthogonalEdgeStyle;rounded=0;orthogonalLoop=1;jettySize=auto;html=1;exitX=0.5;exitY=0;exitDx=0;exitDy=0;entryX=0;entryY=0.5;entryDx=0;entryDy=0;" edge="1" parent="1" source="wd_ZxxUc7aDBKVdMZWth-136" target="wd_ZxxUc7aDBKVdMZWth-204">
          <mxGeometry relative="1" as="geometry" />
        </mxCell>
        <mxCell id="wd_ZxxUc7aDBKVdMZWth-136" value="d_in[20]" style="text;html=1;align=center;verticalAlign=middle;whiteSpace=wrap;rounded=0;" vertex="1" parent="1">
          <mxGeometry x="230" y="700" width="50" height="20" as="geometry" />
        </mxCell>
        <mxCell id="wd_ZxxUc7aDBKVdMZWth-339" style="edgeStyle=orthogonalEdgeStyle;rounded=0;orthogonalLoop=1;jettySize=auto;html=1;exitX=0.5;exitY=0;exitDx=0;exitDy=0;entryX=0;entryY=0.5;entryDx=0;entryDy=0;" edge="1" parent="1" source="wd_ZxxUc7aDBKVdMZWth-137" target="wd_ZxxUc7aDBKVdMZWth-203">
          <mxGeometry relative="1" as="geometry" />
        </mxCell>
        <mxCell id="wd_ZxxUc7aDBKVdMZWth-137" value="d_in[21]" style="text;html=1;align=center;verticalAlign=middle;whiteSpace=wrap;rounded=0;" vertex="1" parent="1">
          <mxGeometry x="180" y="700" width="50" height="20" as="geometry" />
        </mxCell>
        <mxCell id="wd_ZxxUc7aDBKVdMZWth-338" style="edgeStyle=orthogonalEdgeStyle;rounded=0;orthogonalLoop=1;jettySize=auto;html=1;exitX=0.5;exitY=0;exitDx=0;exitDy=0;entryX=0;entryY=0.5;entryDx=0;entryDy=0;" edge="1" parent="1" source="wd_ZxxUc7aDBKVdMZWth-138" target="wd_ZxxUc7aDBKVdMZWth-202">
          <mxGeometry relative="1" as="geometry" />
        </mxCell>
        <mxCell id="wd_ZxxUc7aDBKVdMZWth-138" value="d_in[22]" style="text;html=1;align=center;verticalAlign=middle;whiteSpace=wrap;rounded=0;" vertex="1" parent="1">
          <mxGeometry x="130" y="700" width="50" height="20" as="geometry" />
        </mxCell>
        <mxCell id="wd_ZxxUc7aDBKVdMZWth-337" style="edgeStyle=orthogonalEdgeStyle;rounded=0;orthogonalLoop=1;jettySize=auto;html=1;exitX=0.5;exitY=0;exitDx=0;exitDy=0;entryX=0;entryY=0.5;entryDx=0;entryDy=0;" edge="1" parent="1" source="wd_ZxxUc7aDBKVdMZWth-139" target="wd_ZxxUc7aDBKVdMZWth-201">
          <mxGeometry relative="1" as="geometry" />
        </mxCell>
        <mxCell id="wd_ZxxUc7aDBKVdMZWth-139" value="d_in[23]" style="text;html=1;align=center;verticalAlign=middle;whiteSpace=wrap;rounded=0;" vertex="1" parent="1">
          <mxGeometry x="80" y="700" width="50" height="20" as="geometry" />
        </mxCell>
        <mxCell id="wd_ZxxUc7aDBKVdMZWth-141" value="d_shift[27]" style="text;html=1;align=center;verticalAlign=middle;whiteSpace=wrap;rounded=0;" vertex="1" parent="1">
          <mxGeometry x="-170" y="90" width="60" height="30" as="geometry" />
        </mxCell>
        <mxCell id="wd_ZxxUc7aDBKVdMZWth-142" value="d_shift[26]" style="text;html=1;align=center;verticalAlign=middle;whiteSpace=wrap;rounded=0;" vertex="1" parent="1">
          <mxGeometry x="-170" y="110" width="60" height="30" as="geometry" />
        </mxCell>
        <mxCell id="wd_ZxxUc7aDBKVdMZWth-143" value="d_shift[25]" style="text;html=1;align=center;verticalAlign=middle;whiteSpace=wrap;rounded=0;" vertex="1" parent="1">
          <mxGeometry x="-170" y="130" width="60" height="30" as="geometry" />
        </mxCell>
        <mxCell id="wd_ZxxUc7aDBKVdMZWth-144" value="d_shift[24]" style="text;html=1;align=center;verticalAlign=middle;whiteSpace=wrap;rounded=0;" vertex="1" parent="1">
          <mxGeometry x="-170" y="150" width="60" height="30" as="geometry" />
        </mxCell>
        <mxCell id="wd_ZxxUc7aDBKVdMZWth-145" value="d_shift[20]" style="text;html=1;align=center;verticalAlign=middle;whiteSpace=wrap;rounded=0;" vertex="1" parent="1">
          <mxGeometry x="-170" y="230" width="60" height="30" as="geometry" />
        </mxCell>
        <mxCell id="wd_ZxxUc7aDBKVdMZWth-146" value="d_shift[23]" style="text;html=1;align=center;verticalAlign=middle;whiteSpace=wrap;rounded=0;" vertex="1" parent="1">
          <mxGeometry x="-170" y="170" width="60" height="30" as="geometry" />
        </mxCell>
        <mxCell id="wd_ZxxUc7aDBKVdMZWth-147" value="d_shift[21]" style="text;html=1;align=center;verticalAlign=middle;whiteSpace=wrap;rounded=0;" vertex="1" parent="1">
          <mxGeometry x="-170" y="210" width="60" height="30" as="geometry" />
        </mxCell>
        <mxCell id="wd_ZxxUc7aDBKVdMZWth-148" value="d_shift[22]" style="text;html=1;align=center;verticalAlign=middle;whiteSpace=wrap;rounded=0;" vertex="1" parent="1">
          <mxGeometry x="-170" y="190" width="60" height="30" as="geometry" />
        </mxCell>
        <mxCell id="wd_ZxxUc7aDBKVdMZWth-149" value="d_shift[16]" style="text;html=1;align=center;verticalAlign=middle;whiteSpace=wrap;rounded=0;" vertex="1" parent="1">
          <mxGeometry x="-170" y="310" width="60" height="30" as="geometry" />
        </mxCell>
        <mxCell id="wd_ZxxUc7aDBKVdMZWth-150" value="d_shift[18]" style="text;html=1;align=center;verticalAlign=middle;whiteSpace=wrap;rounded=0;" vertex="1" parent="1">
          <mxGeometry x="-170" y="270" width="60" height="30" as="geometry" />
        </mxCell>
        <mxCell id="wd_ZxxUc7aDBKVdMZWth-151" value="d_shift[17]" style="text;html=1;align=center;verticalAlign=middle;whiteSpace=wrap;rounded=0;" vertex="1" parent="1">
          <mxGeometry x="-170" y="290" width="60" height="30" as="geometry" />
        </mxCell>
        <mxCell id="wd_ZxxUc7aDBKVdMZWth-152" value="d_shift[14]" style="text;html=1;align=center;verticalAlign=middle;whiteSpace=wrap;rounded=0;" vertex="1" parent="1">
          <mxGeometry x="-170" y="350" width="60" height="30" as="geometry" />
        </mxCell>
        <mxCell id="wd_ZxxUc7aDBKVdMZWth-153" value="d_shift[15]" style="text;html=1;align=center;verticalAlign=middle;whiteSpace=wrap;rounded=0;" vertex="1" parent="1">
          <mxGeometry x="-170" y="330" width="60" height="30" as="geometry" />
        </mxCell>
        <mxCell id="wd_ZxxUc7aDBKVdMZWth-154" value="d_shift[13]" style="text;html=1;align=center;verticalAlign=middle;whiteSpace=wrap;rounded=0;" vertex="1" parent="1">
          <mxGeometry x="-170" y="370" width="60" height="30" as="geometry" />
        </mxCell>
        <mxCell id="wd_ZxxUc7aDBKVdMZWth-155" value="d_shift[10]" style="text;html=1;align=center;verticalAlign=middle;whiteSpace=wrap;rounded=0;" vertex="1" parent="1">
          <mxGeometry x="-170" y="430" width="60" height="30" as="geometry" />
        </mxCell>
        <mxCell id="wd_ZxxUc7aDBKVdMZWth-156" value="d_shift[11]" style="text;html=1;align=center;verticalAlign=middle;whiteSpace=wrap;rounded=0;" vertex="1" parent="1">
          <mxGeometry x="-170" y="410" width="60" height="30" as="geometry" />
        </mxCell>
        <mxCell id="wd_ZxxUc7aDBKVdMZWth-157" value="d_shift[12]" style="text;html=1;align=center;verticalAlign=middle;whiteSpace=wrap;rounded=0;" vertex="1" parent="1">
          <mxGeometry x="-170" y="390" width="60" height="30" as="geometry" />
        </mxCell>
        <mxCell id="wd_ZxxUc7aDBKVdMZWth-158" value="d_shift[8]" style="text;html=1;align=center;verticalAlign=middle;whiteSpace=wrap;rounded=0;" vertex="1" parent="1">
          <mxGeometry x="-170" y="470" width="60" height="30" as="geometry" />
        </mxCell>
        <mxCell id="wd_ZxxUc7aDBKVdMZWth-159" value="d_shift[9]" style="text;html=1;align=center;verticalAlign=middle;whiteSpace=wrap;rounded=0;" vertex="1" parent="1">
          <mxGeometry x="-170" y="450" width="60" height="30" as="geometry" />
        </mxCell>
        <mxCell id="wd_ZxxUc7aDBKVdMZWth-160" value="d_shift[3]" style="text;html=1;align=center;verticalAlign=middle;whiteSpace=wrap;rounded=0;" vertex="1" parent="1">
          <mxGeometry x="-170" y="570" width="60" height="30" as="geometry" />
        </mxCell>
        <mxCell id="wd_ZxxUc7aDBKVdMZWth-161" value="d_shift[1]" style="text;html=1;align=center;verticalAlign=middle;whiteSpace=wrap;rounded=0;" vertex="1" parent="1">
          <mxGeometry x="-170" y="610" width="60" height="30" as="geometry" />
        </mxCell>
        <mxCell id="wd_ZxxUc7aDBKVdMZWth-162" value="d_shift[2]" style="text;html=1;align=center;verticalAlign=middle;whiteSpace=wrap;rounded=0;" vertex="1" parent="1">
          <mxGeometry x="-170" y="590" width="60" height="30" as="geometry" />
        </mxCell>
        <mxCell id="wd_ZxxUc7aDBKVdMZWth-163" value="d_shift[0]" style="text;html=1;align=center;verticalAlign=middle;whiteSpace=wrap;rounded=0;" vertex="1" parent="1">
          <mxGeometry x="-170" y="630" width="60" height="30" as="geometry" />
        </mxCell>
        <mxCell id="wd_ZxxUc7aDBKVdMZWth-164" value="d_shift[4]" style="text;html=1;align=center;verticalAlign=middle;whiteSpace=wrap;rounded=0;" vertex="1" parent="1">
          <mxGeometry x="-170" y="550" width="60" height="30" as="geometry" />
        </mxCell>
        <mxCell id="wd_ZxxUc7aDBKVdMZWth-165" value="d_shift[5]" style="text;html=1;align=center;verticalAlign=middle;whiteSpace=wrap;rounded=0;" vertex="1" parent="1">
          <mxGeometry x="-170" y="530" width="60" height="30" as="geometry" />
        </mxCell>
        <mxCell id="wd_ZxxUc7aDBKVdMZWth-166" value="d_shift[6]" style="text;html=1;align=center;verticalAlign=middle;whiteSpace=wrap;rounded=0;" vertex="1" parent="1">
          <mxGeometry x="-170" y="510" width="60" height="30" as="geometry" />
        </mxCell>
        <mxCell id="wd_ZxxUc7aDBKVdMZWth-167" value="d_shift[7]" style="text;html=1;align=center;verticalAlign=middle;whiteSpace=wrap;rounded=0;" vertex="1" parent="1">
          <mxGeometry x="-170" y="490" width="60" height="30" as="geometry" />
        </mxCell>
        <mxCell id="wd_ZxxUc7aDBKVdMZWth-168" value="d_shift[19]" style="text;html=1;align=center;verticalAlign=middle;whiteSpace=wrap;rounded=0;" vertex="1" parent="1">
          <mxGeometry x="-170" y="250" width="60" height="30" as="geometry" />
        </mxCell>
        <mxCell id="wd_ZxxUc7aDBKVdMZWth-169" value="" style="triangle;whiteSpace=wrap;html=1;rotation=90;" vertex="1" parent="1">
          <mxGeometry x="5" y="50" width="20" height="30" as="geometry" />
        </mxCell>
        <mxCell id="wd_ZxxUc7aDBKVdMZWth-281" style="edgeStyle=orthogonalEdgeStyle;rounded=0;orthogonalLoop=1;jettySize=auto;html=1;exitX=1;exitY=0.5;exitDx=0;exitDy=0;entryX=0;entryY=0.5;entryDx=0;entryDy=0;" edge="1" parent="1" source="wd_ZxxUc7aDBKVdMZWth-171" target="wd_ZxxUc7aDBKVdMZWth-57">
          <mxGeometry relative="1" as="geometry" />
        </mxCell>
        <mxCell id="wd_ZxxUc7aDBKVdMZWth-171" value="" style="triangle;whiteSpace=wrap;html=1;rotation=90;" vertex="1" parent="1">
          <mxGeometry x="55" y="50" width="20" height="30" as="geometry" />
        </mxCell>
        <mxCell id="wd_ZxxUc7aDBKVdMZWth-280" style="edgeStyle=orthogonalEdgeStyle;rounded=0;orthogonalLoop=1;jettySize=auto;html=1;exitX=1;exitY=0.5;exitDx=0;exitDy=0;entryX=0;entryY=0.5;entryDx=0;entryDy=0;" edge="1" parent="1" source="wd_ZxxUc7aDBKVdMZWth-172" target="wd_ZxxUc7aDBKVdMZWth-58">
          <mxGeometry relative="1" as="geometry" />
        </mxCell>
        <mxCell id="wd_ZxxUc7aDBKVdMZWth-172" value="" style="triangle;whiteSpace=wrap;html=1;rotation=90;" vertex="1" parent="1">
          <mxGeometry x="105" y="50" width="20" height="30" as="geometry" />
        </mxCell>
        <mxCell id="wd_ZxxUc7aDBKVdMZWth-279" style="edgeStyle=orthogonalEdgeStyle;rounded=0;orthogonalLoop=1;jettySize=auto;html=1;exitX=1;exitY=0.5;exitDx=0;exitDy=0;entryX=0;entryY=0.5;entryDx=0;entryDy=0;" edge="1" parent="1" source="wd_ZxxUc7aDBKVdMZWth-173" target="wd_ZxxUc7aDBKVdMZWth-59">
          <mxGeometry relative="1" as="geometry" />
        </mxCell>
        <mxCell id="wd_ZxxUc7aDBKVdMZWth-173" value="" style="triangle;whiteSpace=wrap;html=1;rotation=90;" vertex="1" parent="1">
          <mxGeometry x="155" y="50" width="20" height="30" as="geometry" />
        </mxCell>
        <mxCell id="wd_ZxxUc7aDBKVdMZWth-278" style="edgeStyle=orthogonalEdgeStyle;rounded=0;orthogonalLoop=1;jettySize=auto;html=1;exitX=1;exitY=0.5;exitDx=0;exitDy=0;entryX=0;entryY=0.5;entryDx=0;entryDy=0;" edge="1" parent="1" source="wd_ZxxUc7aDBKVdMZWth-174" target="wd_ZxxUc7aDBKVdMZWth-61">
          <mxGeometry relative="1" as="geometry" />
        </mxCell>
        <mxCell id="wd_ZxxUc7aDBKVdMZWth-174" value="" style="triangle;whiteSpace=wrap;html=1;rotation=90;" vertex="1" parent="1">
          <mxGeometry x="205" y="50" width="20" height="30" as="geometry" />
        </mxCell>
        <mxCell id="wd_ZxxUc7aDBKVdMZWth-277" style="edgeStyle=orthogonalEdgeStyle;rounded=0;orthogonalLoop=1;jettySize=auto;html=1;exitX=1;exitY=0.5;exitDx=0;exitDy=0;entryX=0;entryY=0.5;entryDx=0;entryDy=0;" edge="1" parent="1" source="wd_ZxxUc7aDBKVdMZWth-175" target="wd_ZxxUc7aDBKVdMZWth-63">
          <mxGeometry relative="1" as="geometry" />
        </mxCell>
        <mxCell id="wd_ZxxUc7aDBKVdMZWth-175" value="" style="triangle;whiteSpace=wrap;html=1;rotation=90;" vertex="1" parent="1">
          <mxGeometry x="255" y="50" width="20" height="30" as="geometry" />
        </mxCell>
        <mxCell id="wd_ZxxUc7aDBKVdMZWth-276" style="edgeStyle=orthogonalEdgeStyle;rounded=0;orthogonalLoop=1;jettySize=auto;html=1;exitX=1;exitY=0.5;exitDx=0;exitDy=0;entryX=0;entryY=0.5;entryDx=0;entryDy=0;" edge="1" parent="1" source="wd_ZxxUc7aDBKVdMZWth-176" target="wd_ZxxUc7aDBKVdMZWth-62">
          <mxGeometry relative="1" as="geometry" />
        </mxCell>
        <mxCell id="wd_ZxxUc7aDBKVdMZWth-176" value="" style="triangle;whiteSpace=wrap;html=1;rotation=90;" vertex="1" parent="1">
          <mxGeometry x="305" y="50" width="20" height="30" as="geometry" />
        </mxCell>
        <mxCell id="wd_ZxxUc7aDBKVdMZWth-275" style="edgeStyle=orthogonalEdgeStyle;rounded=0;orthogonalLoop=1;jettySize=auto;html=1;exitX=1;exitY=0.5;exitDx=0;exitDy=0;entryX=0;entryY=0.5;entryDx=0;entryDy=0;" edge="1" parent="1" source="wd_ZxxUc7aDBKVdMZWth-177" target="wd_ZxxUc7aDBKVdMZWth-60">
          <mxGeometry relative="1" as="geometry" />
        </mxCell>
        <mxCell id="wd_ZxxUc7aDBKVdMZWth-177" value="" style="triangle;whiteSpace=wrap;html=1;rotation=90;" vertex="1" parent="1">
          <mxGeometry x="355" y="50" width="20" height="30" as="geometry" />
        </mxCell>
        <mxCell id="wd_ZxxUc7aDBKVdMZWth-274" style="edgeStyle=orthogonalEdgeStyle;rounded=0;orthogonalLoop=1;jettySize=auto;html=1;exitX=1;exitY=0.5;exitDx=0;exitDy=0;entryX=0;entryY=0.5;entryDx=0;entryDy=0;" edge="1" parent="1" source="wd_ZxxUc7aDBKVdMZWth-178" target="wd_ZxxUc7aDBKVdMZWth-83">
          <mxGeometry relative="1" as="geometry" />
        </mxCell>
        <mxCell id="wd_ZxxUc7aDBKVdMZWth-178" value="" style="triangle;whiteSpace=wrap;html=1;rotation=90;" vertex="1" parent="1">
          <mxGeometry x="405" y="50" width="20" height="30" as="geometry" />
        </mxCell>
        <mxCell id="wd_ZxxUc7aDBKVdMZWth-273" style="edgeStyle=orthogonalEdgeStyle;rounded=0;orthogonalLoop=1;jettySize=auto;html=1;exitX=1;exitY=0.5;exitDx=0;exitDy=0;entryX=0;entryY=0.5;entryDx=0;entryDy=0;" edge="1" parent="1" source="wd_ZxxUc7aDBKVdMZWth-179" target="wd_ZxxUc7aDBKVdMZWth-65">
          <mxGeometry relative="1" as="geometry" />
        </mxCell>
        <mxCell id="wd_ZxxUc7aDBKVdMZWth-179" value="" style="triangle;whiteSpace=wrap;html=1;rotation=90;" vertex="1" parent="1">
          <mxGeometry x="455" y="50" width="20" height="30" as="geometry" />
        </mxCell>
        <mxCell id="wd_ZxxUc7aDBKVdMZWth-272" style="edgeStyle=orthogonalEdgeStyle;rounded=0;orthogonalLoop=1;jettySize=auto;html=1;exitX=1;exitY=0.5;exitDx=0;exitDy=0;entryX=0;entryY=0.5;entryDx=0;entryDy=0;" edge="1" parent="1" source="wd_ZxxUc7aDBKVdMZWth-180" target="wd_ZxxUc7aDBKVdMZWth-66">
          <mxGeometry relative="1" as="geometry" />
        </mxCell>
        <mxCell id="wd_ZxxUc7aDBKVdMZWth-180" value="" style="triangle;whiteSpace=wrap;html=1;rotation=90;" vertex="1" parent="1">
          <mxGeometry x="505" y="50" width="20" height="30" as="geometry" />
        </mxCell>
        <mxCell id="wd_ZxxUc7aDBKVdMZWth-271" style="edgeStyle=orthogonalEdgeStyle;rounded=0;orthogonalLoop=1;jettySize=auto;html=1;exitX=1;exitY=0.5;exitDx=0;exitDy=0;entryX=0;entryY=0.5;entryDx=0;entryDy=0;" edge="1" parent="1" source="wd_ZxxUc7aDBKVdMZWth-181" target="wd_ZxxUc7aDBKVdMZWth-64">
          <mxGeometry relative="1" as="geometry" />
        </mxCell>
        <mxCell id="wd_ZxxUc7aDBKVdMZWth-181" value="" style="triangle;whiteSpace=wrap;html=1;rotation=90;" vertex="1" parent="1">
          <mxGeometry x="555" y="50" width="20" height="30" as="geometry" />
        </mxCell>
        <mxCell id="wd_ZxxUc7aDBKVdMZWth-270" style="edgeStyle=orthogonalEdgeStyle;rounded=0;orthogonalLoop=1;jettySize=auto;html=1;exitX=1;exitY=0.5;exitDx=0;exitDy=0;entryX=0;entryY=0.5;entryDx=0;entryDy=0;" edge="1" parent="1" source="wd_ZxxUc7aDBKVdMZWth-182" target="wd_ZxxUc7aDBKVdMZWth-68">
          <mxGeometry relative="1" as="geometry" />
        </mxCell>
        <mxCell id="wd_ZxxUc7aDBKVdMZWth-182" value="" style="triangle;whiteSpace=wrap;html=1;rotation=90;" vertex="1" parent="1">
          <mxGeometry x="605" y="50" width="20" height="30" as="geometry" />
        </mxCell>
        <mxCell id="wd_ZxxUc7aDBKVdMZWth-269" style="edgeStyle=orthogonalEdgeStyle;rounded=0;orthogonalLoop=1;jettySize=auto;html=1;exitX=1;exitY=0.5;exitDx=0;exitDy=0;entryX=0;entryY=0.5;entryDx=0;entryDy=0;" edge="1" parent="1" source="wd_ZxxUc7aDBKVdMZWth-183" target="wd_ZxxUc7aDBKVdMZWth-67">
          <mxGeometry relative="1" as="geometry" />
        </mxCell>
        <mxCell id="wd_ZxxUc7aDBKVdMZWth-183" value="" style="triangle;whiteSpace=wrap;html=1;rotation=90;" vertex="1" parent="1">
          <mxGeometry x="655" y="50" width="20" height="30" as="geometry" />
        </mxCell>
        <mxCell id="wd_ZxxUc7aDBKVdMZWth-268" style="edgeStyle=orthogonalEdgeStyle;rounded=0;orthogonalLoop=1;jettySize=auto;html=1;exitX=1;exitY=0.5;exitDx=0;exitDy=0;entryX=0;entryY=0.5;entryDx=0;entryDy=0;" edge="1" parent="1" source="wd_ZxxUc7aDBKVdMZWth-184" target="wd_ZxxUc7aDBKVdMZWth-69">
          <mxGeometry relative="1" as="geometry" />
        </mxCell>
        <mxCell id="wd_ZxxUc7aDBKVdMZWth-184" value="" style="triangle;whiteSpace=wrap;html=1;rotation=90;" vertex="1" parent="1">
          <mxGeometry x="705" y="50" width="20" height="30" as="geometry" />
        </mxCell>
        <mxCell id="wd_ZxxUc7aDBKVdMZWth-266" style="edgeStyle=orthogonalEdgeStyle;rounded=0;orthogonalLoop=1;jettySize=auto;html=1;exitX=1;exitY=0.5;exitDx=0;exitDy=0;entryX=0;entryY=0.5;entryDx=0;entryDy=0;" edge="1" parent="1" source="wd_ZxxUc7aDBKVdMZWth-185" target="wd_ZxxUc7aDBKVdMZWth-71">
          <mxGeometry relative="1" as="geometry" />
        </mxCell>
        <mxCell id="wd_ZxxUc7aDBKVdMZWth-185" value="" style="triangle;whiteSpace=wrap;html=1;rotation=90;" vertex="1" parent="1">
          <mxGeometry x="805" y="50" width="20" height="30" as="geometry" />
        </mxCell>
        <mxCell id="wd_ZxxUc7aDBKVdMZWth-265" style="edgeStyle=orthogonalEdgeStyle;rounded=0;orthogonalLoop=1;jettySize=auto;html=1;exitX=1;exitY=0.5;exitDx=0;exitDy=0;entryX=0;entryY=0.5;entryDx=0;entryDy=0;" edge="1" parent="1" source="wd_ZxxUc7aDBKVdMZWth-186" target="wd_ZxxUc7aDBKVdMZWth-70">
          <mxGeometry relative="1" as="geometry" />
        </mxCell>
        <mxCell id="wd_ZxxUc7aDBKVdMZWth-186" value="" style="triangle;whiteSpace=wrap;html=1;rotation=90;" vertex="1" parent="1">
          <mxGeometry x="855" y="50" width="20" height="30" as="geometry" />
        </mxCell>
        <mxCell id="wd_ZxxUc7aDBKVdMZWth-264" style="edgeStyle=orthogonalEdgeStyle;rounded=0;orthogonalLoop=1;jettySize=auto;html=1;exitX=1;exitY=0.5;exitDx=0;exitDy=0;entryX=0;entryY=0.5;entryDx=0;entryDy=0;" edge="1" parent="1" source="wd_ZxxUc7aDBKVdMZWth-187" target="wd_ZxxUc7aDBKVdMZWth-74">
          <mxGeometry relative="1" as="geometry" />
        </mxCell>
        <mxCell id="wd_ZxxUc7aDBKVdMZWth-187" value="" style="triangle;whiteSpace=wrap;html=1;rotation=90;" vertex="1" parent="1">
          <mxGeometry x="905" y="50" width="20" height="30" as="geometry" />
        </mxCell>
        <mxCell id="wd_ZxxUc7aDBKVdMZWth-267" style="edgeStyle=orthogonalEdgeStyle;rounded=0;orthogonalLoop=1;jettySize=auto;html=1;exitX=1;exitY=0.5;exitDx=0;exitDy=0;entryX=0;entryY=0.5;entryDx=0;entryDy=0;" edge="1" parent="1" source="wd_ZxxUc7aDBKVdMZWth-188" target="wd_ZxxUc7aDBKVdMZWth-72">
          <mxGeometry relative="1" as="geometry" />
        </mxCell>
        <mxCell id="wd_ZxxUc7aDBKVdMZWth-188" value="" style="triangle;whiteSpace=wrap;html=1;rotation=90;" vertex="1" parent="1">
          <mxGeometry x="755" y="50" width="20" height="30" as="geometry" />
        </mxCell>
        <mxCell id="wd_ZxxUc7aDBKVdMZWth-261" style="edgeStyle=orthogonalEdgeStyle;rounded=0;orthogonalLoop=1;jettySize=auto;html=1;exitX=1;exitY=0.5;exitDx=0;exitDy=0;entryX=0;entryY=0.5;entryDx=0;entryDy=0;" edge="1" parent="1" source="wd_ZxxUc7aDBKVdMZWth-189" target="wd_ZxxUc7aDBKVdMZWth-81">
          <mxGeometry relative="1" as="geometry" />
        </mxCell>
        <mxCell id="wd_ZxxUc7aDBKVdMZWth-189" value="" style="triangle;whiteSpace=wrap;html=1;rotation=90;" vertex="1" parent="1">
          <mxGeometry x="1055" y="50" width="20" height="30" as="geometry" />
        </mxCell>
        <mxCell id="wd_ZxxUc7aDBKVdMZWth-262" style="edgeStyle=orthogonalEdgeStyle;rounded=0;orthogonalLoop=1;jettySize=auto;html=1;exitX=1;exitY=0.5;exitDx=0;exitDy=0;entryX=0;entryY=0.5;entryDx=0;entryDy=0;" edge="1" parent="1" source="wd_ZxxUc7aDBKVdMZWth-190" target="wd_ZxxUc7aDBKVdMZWth-82">
          <mxGeometry relative="1" as="geometry" />
        </mxCell>
        <mxCell id="wd_ZxxUc7aDBKVdMZWth-190" value="" style="triangle;whiteSpace=wrap;html=1;rotation=90;" vertex="1" parent="1">
          <mxGeometry x="1005" y="50" width="20" height="30" as="geometry" />
        </mxCell>
        <mxCell id="wd_ZxxUc7aDBKVdMZWth-263" style="edgeStyle=orthogonalEdgeStyle;rounded=0;orthogonalLoop=1;jettySize=auto;html=1;exitX=1;exitY=0.5;exitDx=0;exitDy=0;entryX=0;entryY=0.5;entryDx=0;entryDy=0;" edge="1" parent="1" source="wd_ZxxUc7aDBKVdMZWth-191" target="wd_ZxxUc7aDBKVdMZWth-73">
          <mxGeometry relative="1" as="geometry" />
        </mxCell>
        <mxCell id="wd_ZxxUc7aDBKVdMZWth-191" value="" style="triangle;whiteSpace=wrap;html=1;rotation=90;" vertex="1" parent="1">
          <mxGeometry x="955" y="50" width="20" height="30" as="geometry" />
        </mxCell>
        <mxCell id="wd_ZxxUc7aDBKVdMZWth-258" style="edgeStyle=orthogonalEdgeStyle;rounded=0;orthogonalLoop=1;jettySize=auto;html=1;exitX=1;exitY=0.5;exitDx=0;exitDy=0;entryX=0;entryY=0.5;entryDx=0;entryDy=0;" edge="1" parent="1" source="wd_ZxxUc7aDBKVdMZWth-192" target="wd_ZxxUc7aDBKVdMZWth-75">
          <mxGeometry relative="1" as="geometry" />
        </mxCell>
        <mxCell id="wd_ZxxUc7aDBKVdMZWth-192" value="" style="triangle;whiteSpace=wrap;html=1;rotation=90;" vertex="1" parent="1">
          <mxGeometry x="1205" y="50" width="20" height="30" as="geometry" />
        </mxCell>
        <mxCell id="wd_ZxxUc7aDBKVdMZWth-259" style="edgeStyle=orthogonalEdgeStyle;rounded=0;orthogonalLoop=1;jettySize=auto;html=1;exitX=1;exitY=0.5;exitDx=0;exitDy=0;entryX=0;entryY=0.5;entryDx=0;entryDy=0;" edge="1" parent="1" source="wd_ZxxUc7aDBKVdMZWth-193" target="wd_ZxxUc7aDBKVdMZWth-79">
          <mxGeometry relative="1" as="geometry" />
        </mxCell>
        <mxCell id="wd_ZxxUc7aDBKVdMZWth-193" value="" style="triangle;whiteSpace=wrap;html=1;rotation=90;" vertex="1" parent="1">
          <mxGeometry x="1155" y="50" width="20" height="30" as="geometry" />
        </mxCell>
        <mxCell id="wd_ZxxUc7aDBKVdMZWth-260" style="edgeStyle=orthogonalEdgeStyle;rounded=0;orthogonalLoop=1;jettySize=auto;html=1;exitX=1;exitY=0.5;exitDx=0;exitDy=0;entryX=0;entryY=0.5;entryDx=0;entryDy=0;" edge="1" parent="1" source="wd_ZxxUc7aDBKVdMZWth-194" target="wd_ZxxUc7aDBKVdMZWth-80">
          <mxGeometry relative="1" as="geometry" />
        </mxCell>
        <mxCell id="wd_ZxxUc7aDBKVdMZWth-194" value="" style="triangle;whiteSpace=wrap;html=1;rotation=90;" vertex="1" parent="1">
          <mxGeometry x="1105" y="50" width="20" height="30" as="geometry" />
        </mxCell>
        <mxCell id="wd_ZxxUc7aDBKVdMZWth-257" style="edgeStyle=orthogonalEdgeStyle;rounded=0;orthogonalLoop=1;jettySize=auto;html=1;exitX=1;exitY=0.5;exitDx=0;exitDy=0;entryX=0;entryY=0.5;entryDx=0;entryDy=0;" edge="1" parent="1" source="wd_ZxxUc7aDBKVdMZWth-195" target="wd_ZxxUc7aDBKVdMZWth-77">
          <mxGeometry relative="1" as="geometry" />
        </mxCell>
        <mxCell id="wd_ZxxUc7aDBKVdMZWth-195" value="" style="triangle;whiteSpace=wrap;html=1;rotation=90;" vertex="1" parent="1">
          <mxGeometry x="1255" y="50" width="20" height="30" as="geometry" />
        </mxCell>
        <mxCell id="wd_ZxxUc7aDBKVdMZWth-256" style="edgeStyle=orthogonalEdgeStyle;rounded=0;orthogonalLoop=1;jettySize=auto;html=1;exitX=1;exitY=0.5;exitDx=0;exitDy=0;entryX=0;entryY=0.5;entryDx=0;entryDy=0;" edge="1" parent="1" source="wd_ZxxUc7aDBKVdMZWth-196" target="wd_ZxxUc7aDBKVdMZWth-76">
          <mxGeometry relative="1" as="geometry" />
        </mxCell>
        <mxCell id="wd_ZxxUc7aDBKVdMZWth-196" value="" style="triangle;whiteSpace=wrap;html=1;rotation=90;" vertex="1" parent="1">
          <mxGeometry x="1305" y="50" width="20" height="30" as="geometry" />
        </mxCell>
        <mxCell id="wd_ZxxUc7aDBKVdMZWth-292" style="edgeStyle=orthogonalEdgeStyle;rounded=0;orthogonalLoop=1;jettySize=auto;html=1;exitX=1;exitY=0.5;exitDx=0;exitDy=0;entryX=0;entryY=0.5;entryDx=0;entryDy=0;" edge="1" parent="1" source="wd_ZxxUc7aDBKVdMZWth-197" target="wd_ZxxUc7aDBKVdMZWth-56">
          <mxGeometry relative="1" as="geometry" />
        </mxCell>
        <mxCell id="wd_ZxxUc7aDBKVdMZWth-197" value="" style="triangle;whiteSpace=wrap;html=1;rotation=90;" vertex="1" parent="1">
          <mxGeometry x="5" y="50" width="20" height="30" as="geometry" />
        </mxCell>
        <mxCell id="wd_ZxxUc7aDBKVdMZWth-331" style="edgeStyle=orthogonalEdgeStyle;rounded=0;orthogonalLoop=1;jettySize=auto;html=1;exitX=1;exitY=0.5;exitDx=0;exitDy=0;entryX=1;entryY=0.5;entryDx=0;entryDy=0;" edge="1" parent="1" source="wd_ZxxUc7aDBKVdMZWth-198" target="wd_ZxxUc7aDBKVdMZWth-141">
          <mxGeometry relative="1" as="geometry" />
        </mxCell>
        <mxCell id="wd_ZxxUc7aDBKVdMZWth-198" value="" style="triangle;whiteSpace=wrap;html=1;rotation=-90;" vertex="1" parent="1">
          <mxGeometry x="-55" y="660" width="20" height="30" as="geometry" />
        </mxCell>
        <mxCell id="wd_ZxxUc7aDBKVdMZWth-330" style="edgeStyle=orthogonalEdgeStyle;rounded=0;orthogonalLoop=1;jettySize=auto;html=1;exitX=1;exitY=0.5;exitDx=0;exitDy=0;entryX=1;entryY=0.5;entryDx=0;entryDy=0;" edge="1" parent="1" source="wd_ZxxUc7aDBKVdMZWth-199" target="wd_ZxxUc7aDBKVdMZWth-142">
          <mxGeometry relative="1" as="geometry" />
        </mxCell>
        <mxCell id="wd_ZxxUc7aDBKVdMZWth-199" value="" style="triangle;whiteSpace=wrap;html=1;rotation=-90;" vertex="1" parent="1">
          <mxGeometry x="-5" y="660" width="20" height="30" as="geometry" />
        </mxCell>
        <mxCell id="wd_ZxxUc7aDBKVdMZWth-329" style="edgeStyle=orthogonalEdgeStyle;rounded=0;orthogonalLoop=1;jettySize=auto;html=1;exitX=1;exitY=0.5;exitDx=0;exitDy=0;entryX=1;entryY=0.5;entryDx=0;entryDy=0;" edge="1" parent="1" source="wd_ZxxUc7aDBKVdMZWth-200" target="wd_ZxxUc7aDBKVdMZWth-143">
          <mxGeometry relative="1" as="geometry" />
        </mxCell>
        <mxCell id="wd_ZxxUc7aDBKVdMZWth-200" value="" style="triangle;whiteSpace=wrap;html=1;rotation=-90;" vertex="1" parent="1">
          <mxGeometry x="45" y="660" width="20" height="30" as="geometry" />
        </mxCell>
        <mxCell id="wd_ZxxUc7aDBKVdMZWth-328" style="edgeStyle=orthogonalEdgeStyle;rounded=0;orthogonalLoop=1;jettySize=auto;html=1;exitX=1;exitY=0.5;exitDx=0;exitDy=0;entryX=1;entryY=0.5;entryDx=0;entryDy=0;" edge="1" parent="1" source="wd_ZxxUc7aDBKVdMZWth-201" target="wd_ZxxUc7aDBKVdMZWth-144">
          <mxGeometry relative="1" as="geometry" />
        </mxCell>
        <mxCell id="wd_ZxxUc7aDBKVdMZWth-201" value="" style="triangle;whiteSpace=wrap;html=1;rotation=-90;" vertex="1" parent="1">
          <mxGeometry x="95" y="660" width="20" height="30" as="geometry" />
        </mxCell>
        <mxCell id="wd_ZxxUc7aDBKVdMZWth-327" style="edgeStyle=orthogonalEdgeStyle;rounded=0;orthogonalLoop=1;jettySize=auto;html=1;exitX=1;exitY=0.5;exitDx=0;exitDy=0;entryX=1;entryY=0.5;entryDx=0;entryDy=0;" edge="1" parent="1" source="wd_ZxxUc7aDBKVdMZWth-202" target="wd_ZxxUc7aDBKVdMZWth-146">
          <mxGeometry relative="1" as="geometry" />
        </mxCell>
        <mxCell id="wd_ZxxUc7aDBKVdMZWth-202" value="" style="triangle;whiteSpace=wrap;html=1;rotation=-90;" vertex="1" parent="1">
          <mxGeometry x="145" y="660" width="20" height="30" as="geometry" />
        </mxCell>
        <mxCell id="wd_ZxxUc7aDBKVdMZWth-326" style="edgeStyle=orthogonalEdgeStyle;rounded=0;orthogonalLoop=1;jettySize=auto;html=1;exitX=1;exitY=0.5;exitDx=0;exitDy=0;entryX=1;entryY=0.5;entryDx=0;entryDy=0;" edge="1" parent="1" source="wd_ZxxUc7aDBKVdMZWth-203" target="wd_ZxxUc7aDBKVdMZWth-148">
          <mxGeometry relative="1" as="geometry" />
        </mxCell>
        <mxCell id="wd_ZxxUc7aDBKVdMZWth-203" value="" style="triangle;whiteSpace=wrap;html=1;rotation=-90;" vertex="1" parent="1">
          <mxGeometry x="195" y="660" width="20" height="30" as="geometry" />
        </mxCell>
        <mxCell id="wd_ZxxUc7aDBKVdMZWth-325" style="edgeStyle=orthogonalEdgeStyle;rounded=0;orthogonalLoop=1;jettySize=auto;html=1;exitX=1;exitY=0.5;exitDx=0;exitDy=0;entryX=1;entryY=0.5;entryDx=0;entryDy=0;" edge="1" parent="1" source="wd_ZxxUc7aDBKVdMZWth-204" target="wd_ZxxUc7aDBKVdMZWth-147">
          <mxGeometry relative="1" as="geometry" />
        </mxCell>
        <mxCell id="wd_ZxxUc7aDBKVdMZWth-204" value="" style="triangle;whiteSpace=wrap;html=1;rotation=90;direction=west;" vertex="1" parent="1">
          <mxGeometry x="245" y="660" width="20" height="30" as="geometry" />
        </mxCell>
        <mxCell id="wd_ZxxUc7aDBKVdMZWth-324" style="edgeStyle=orthogonalEdgeStyle;rounded=0;orthogonalLoop=1;jettySize=auto;html=1;exitX=1;exitY=0.5;exitDx=0;exitDy=0;entryX=1;entryY=0.5;entryDx=0;entryDy=0;" edge="1" parent="1" source="wd_ZxxUc7aDBKVdMZWth-205" target="wd_ZxxUc7aDBKVdMZWth-145">
          <mxGeometry relative="1" as="geometry" />
        </mxCell>
        <mxCell id="wd_ZxxUc7aDBKVdMZWth-205" value="" style="triangle;whiteSpace=wrap;html=1;rotation=-90;" vertex="1" parent="1">
          <mxGeometry x="295" y="660" width="20" height="30" as="geometry" />
        </mxCell>
        <mxCell id="wd_ZxxUc7aDBKVdMZWth-323" style="edgeStyle=orthogonalEdgeStyle;rounded=0;orthogonalLoop=1;jettySize=auto;html=1;exitX=1;exitY=0.5;exitDx=0;exitDy=0;entryX=1;entryY=0.5;entryDx=0;entryDy=0;" edge="1" parent="1" source="wd_ZxxUc7aDBKVdMZWth-206" target="wd_ZxxUc7aDBKVdMZWth-168">
          <mxGeometry relative="1" as="geometry" />
        </mxCell>
        <mxCell id="wd_ZxxUc7aDBKVdMZWth-206" value="" style="triangle;whiteSpace=wrap;html=1;rotation=-90;" vertex="1" parent="1">
          <mxGeometry x="345" y="660" width="20" height="30" as="geometry" />
        </mxCell>
        <mxCell id="wd_ZxxUc7aDBKVdMZWth-322" style="edgeStyle=orthogonalEdgeStyle;rounded=0;orthogonalLoop=1;jettySize=auto;html=1;exitX=1;exitY=0.5;exitDx=0;exitDy=0;entryX=1;entryY=0.5;entryDx=0;entryDy=0;" edge="1" parent="1" source="wd_ZxxUc7aDBKVdMZWth-207" target="wd_ZxxUc7aDBKVdMZWth-150">
          <mxGeometry relative="1" as="geometry" />
        </mxCell>
        <mxCell id="wd_ZxxUc7aDBKVdMZWth-207" value="" style="triangle;whiteSpace=wrap;html=1;rotation=-90;" vertex="1" parent="1">
          <mxGeometry x="395" y="660" width="20" height="30" as="geometry" />
        </mxCell>
        <mxCell id="wd_ZxxUc7aDBKVdMZWth-321" style="edgeStyle=orthogonalEdgeStyle;rounded=0;orthogonalLoop=1;jettySize=auto;html=1;exitX=1;exitY=0.5;exitDx=0;exitDy=0;entryX=1;entryY=0.5;entryDx=0;entryDy=0;" edge="1" parent="1" source="wd_ZxxUc7aDBKVdMZWth-208" target="wd_ZxxUc7aDBKVdMZWth-151">
          <mxGeometry relative="1" as="geometry" />
        </mxCell>
        <mxCell id="wd_ZxxUc7aDBKVdMZWth-208" value="" style="triangle;whiteSpace=wrap;html=1;rotation=-90;" vertex="1" parent="1">
          <mxGeometry x="445" y="660" width="20" height="30" as="geometry" />
        </mxCell>
        <mxCell id="wd_ZxxUc7aDBKVdMZWth-310" style="edgeStyle=orthogonalEdgeStyle;rounded=0;orthogonalLoop=1;jettySize=auto;html=1;exitX=1;exitY=0.5;exitDx=0;exitDy=0;entryX=1;entryY=0.5;entryDx=0;entryDy=0;" edge="1" parent="1" source="wd_ZxxUc7aDBKVdMZWth-209" target="wd_ZxxUc7aDBKVdMZWth-149">
          <mxGeometry relative="1" as="geometry" />
        </mxCell>
        <mxCell id="wd_ZxxUc7aDBKVdMZWth-209" value="" style="triangle;whiteSpace=wrap;html=1;rotation=-90;" vertex="1" parent="1">
          <mxGeometry x="495" y="660" width="20" height="30" as="geometry" />
        </mxCell>
        <mxCell id="wd_ZxxUc7aDBKVdMZWth-309" style="edgeStyle=orthogonalEdgeStyle;rounded=0;orthogonalLoop=1;jettySize=auto;html=1;exitX=1;exitY=0.5;exitDx=0;exitDy=0;entryX=1;entryY=0.5;entryDx=0;entryDy=0;" edge="1" parent="1" source="wd_ZxxUc7aDBKVdMZWth-210" target="wd_ZxxUc7aDBKVdMZWth-153">
          <mxGeometry relative="1" as="geometry" />
        </mxCell>
        <mxCell id="wd_ZxxUc7aDBKVdMZWth-210" value="" style="triangle;whiteSpace=wrap;html=1;rotation=-90;" vertex="1" parent="1">
          <mxGeometry x="545" y="660" width="20" height="30" as="geometry" />
        </mxCell>
        <mxCell id="wd_ZxxUc7aDBKVdMZWth-308" style="edgeStyle=orthogonalEdgeStyle;rounded=0;orthogonalLoop=1;jettySize=auto;html=1;exitX=1;exitY=0.5;exitDx=0;exitDy=0;entryX=1;entryY=0.5;entryDx=0;entryDy=0;" edge="1" parent="1" source="wd_ZxxUc7aDBKVdMZWth-211" target="wd_ZxxUc7aDBKVdMZWth-152">
          <mxGeometry relative="1" as="geometry" />
        </mxCell>
        <mxCell id="wd_ZxxUc7aDBKVdMZWth-211" value="" style="triangle;whiteSpace=wrap;html=1;rotation=-90;" vertex="1" parent="1">
          <mxGeometry x="595" y="660" width="20" height="30" as="geometry" />
        </mxCell>
        <mxCell id="wd_ZxxUc7aDBKVdMZWth-307" style="edgeStyle=orthogonalEdgeStyle;rounded=0;orthogonalLoop=1;jettySize=auto;html=1;exitX=1;exitY=0.5;exitDx=0;exitDy=0;entryX=1;entryY=0.5;entryDx=0;entryDy=0;" edge="1" parent="1" source="wd_ZxxUc7aDBKVdMZWth-212" target="wd_ZxxUc7aDBKVdMZWth-154">
          <mxGeometry relative="1" as="geometry" />
        </mxCell>
        <mxCell id="wd_ZxxUc7aDBKVdMZWth-212" value="" style="triangle;whiteSpace=wrap;html=1;rotation=-90;" vertex="1" parent="1">
          <mxGeometry x="645" y="660" width="20" height="30" as="geometry" />
        </mxCell>
        <mxCell id="wd_ZxxUc7aDBKVdMZWth-305" style="edgeStyle=orthogonalEdgeStyle;rounded=0;orthogonalLoop=1;jettySize=auto;html=1;exitX=1;exitY=0.5;exitDx=0;exitDy=0;entryX=1;entryY=0.5;entryDx=0;entryDy=0;" edge="1" parent="1" source="wd_ZxxUc7aDBKVdMZWth-213" target="wd_ZxxUc7aDBKVdMZWth-156">
          <mxGeometry relative="1" as="geometry" />
        </mxCell>
        <mxCell id="wd_ZxxUc7aDBKVdMZWth-213" value="" style="triangle;whiteSpace=wrap;html=1;rotation=-90;" vertex="1" parent="1">
          <mxGeometry x="745" y="660" width="20" height="30" as="geometry" />
        </mxCell>
        <mxCell id="wd_ZxxUc7aDBKVdMZWth-304" style="edgeStyle=orthogonalEdgeStyle;rounded=0;orthogonalLoop=1;jettySize=auto;html=1;exitX=1;exitY=0.5;exitDx=0;exitDy=0;entryX=1;entryY=0.5;entryDx=0;entryDy=0;" edge="1" parent="1" source="wd_ZxxUc7aDBKVdMZWth-214" target="wd_ZxxUc7aDBKVdMZWth-155">
          <mxGeometry relative="1" as="geometry" />
        </mxCell>
        <mxCell id="wd_ZxxUc7aDBKVdMZWth-214" value="" style="triangle;whiteSpace=wrap;html=1;rotation=-90;" vertex="1" parent="1">
          <mxGeometry x="795" y="660" width="20" height="30" as="geometry" />
        </mxCell>
        <mxCell id="wd_ZxxUc7aDBKVdMZWth-303" style="edgeStyle=orthogonalEdgeStyle;rounded=0;orthogonalLoop=1;jettySize=auto;html=1;exitX=1;exitY=0.5;exitDx=0;exitDy=0;entryX=1;entryY=0.5;entryDx=0;entryDy=0;" edge="1" parent="1" source="wd_ZxxUc7aDBKVdMZWth-215" target="wd_ZxxUc7aDBKVdMZWth-159">
          <mxGeometry relative="1" as="geometry" />
        </mxCell>
        <mxCell id="wd_ZxxUc7aDBKVdMZWth-215" value="" style="triangle;whiteSpace=wrap;html=1;rotation=-90;" vertex="1" parent="1">
          <mxGeometry x="845" y="660" width="20" height="30" as="geometry" />
        </mxCell>
        <mxCell id="wd_ZxxUc7aDBKVdMZWth-306" style="edgeStyle=orthogonalEdgeStyle;rounded=0;orthogonalLoop=1;jettySize=auto;html=1;exitX=1;exitY=0.5;exitDx=0;exitDy=0;entryX=1;entryY=0.5;entryDx=0;entryDy=0;" edge="1" parent="1" source="wd_ZxxUc7aDBKVdMZWth-216" target="wd_ZxxUc7aDBKVdMZWth-157">
          <mxGeometry relative="1" as="geometry" />
        </mxCell>
        <mxCell id="wd_ZxxUc7aDBKVdMZWth-216" value="" style="triangle;whiteSpace=wrap;html=1;rotation=-90;" vertex="1" parent="1">
          <mxGeometry x="695" y="660" width="20" height="30" as="geometry" />
        </mxCell>
        <mxCell id="wd_ZxxUc7aDBKVdMZWth-300" style="edgeStyle=orthogonalEdgeStyle;rounded=0;orthogonalLoop=1;jettySize=auto;html=1;exitX=1;exitY=0.5;exitDx=0;exitDy=0;entryX=1;entryY=0.5;entryDx=0;entryDy=0;" edge="1" parent="1" source="wd_ZxxUc7aDBKVdMZWth-217" target="wd_ZxxUc7aDBKVdMZWth-166">
          <mxGeometry relative="1" as="geometry" />
        </mxCell>
        <mxCell id="wd_ZxxUc7aDBKVdMZWth-217" value="" style="triangle;whiteSpace=wrap;html=1;rotation=-90;" vertex="1" parent="1">
          <mxGeometry x="995" y="660" width="20" height="30" as="geometry" />
        </mxCell>
        <mxCell id="wd_ZxxUc7aDBKVdMZWth-301" style="edgeStyle=orthogonalEdgeStyle;rounded=0;orthogonalLoop=1;jettySize=auto;html=1;exitX=1;exitY=0.5;exitDx=0;exitDy=0;entryX=1;entryY=0.5;entryDx=0;entryDy=0;" edge="1" parent="1" source="wd_ZxxUc7aDBKVdMZWth-218" target="wd_ZxxUc7aDBKVdMZWth-167">
          <mxGeometry relative="1" as="geometry" />
        </mxCell>
        <mxCell id="wd_ZxxUc7aDBKVdMZWth-218" value="" style="triangle;whiteSpace=wrap;html=1;rotation=-90;" vertex="1" parent="1">
          <mxGeometry x="945" y="660" width="20" height="30" as="geometry" />
        </mxCell>
        <mxCell id="wd_ZxxUc7aDBKVdMZWth-302" style="edgeStyle=orthogonalEdgeStyle;rounded=0;orthogonalLoop=1;jettySize=auto;html=1;exitX=1;exitY=0.5;exitDx=0;exitDy=0;entryX=1;entryY=0.5;entryDx=0;entryDy=0;" edge="1" parent="1" source="wd_ZxxUc7aDBKVdMZWth-219" target="wd_ZxxUc7aDBKVdMZWth-158">
          <mxGeometry relative="1" as="geometry" />
        </mxCell>
        <mxCell id="wd_ZxxUc7aDBKVdMZWth-219" value="" style="triangle;whiteSpace=wrap;html=1;rotation=-90;" vertex="1" parent="1">
          <mxGeometry x="895" y="660" width="20" height="30" as="geometry" />
        </mxCell>
        <mxCell id="wd_ZxxUc7aDBKVdMZWth-297" style="edgeStyle=orthogonalEdgeStyle;rounded=0;orthogonalLoop=1;jettySize=auto;html=1;exitX=1;exitY=0.5;exitDx=0;exitDy=0;entryX=1;entryY=0.5;entryDx=0;entryDy=0;" edge="1" parent="1" source="wd_ZxxUc7aDBKVdMZWth-220" target="wd_ZxxUc7aDBKVdMZWth-160">
          <mxGeometry relative="1" as="geometry" />
        </mxCell>
        <mxCell id="wd_ZxxUc7aDBKVdMZWth-220" value="" style="triangle;whiteSpace=wrap;html=1;rotation=-90;" vertex="1" parent="1">
          <mxGeometry x="1145" y="660" width="20" height="30" as="geometry" />
        </mxCell>
        <mxCell id="wd_ZxxUc7aDBKVdMZWth-298" style="edgeStyle=orthogonalEdgeStyle;rounded=0;orthogonalLoop=1;jettySize=auto;html=1;exitX=1;exitY=0.5;exitDx=0;exitDy=0;entryX=1;entryY=0.5;entryDx=0;entryDy=0;" edge="1" parent="1" source="wd_ZxxUc7aDBKVdMZWth-221" target="wd_ZxxUc7aDBKVdMZWth-164">
          <mxGeometry relative="1" as="geometry" />
        </mxCell>
        <mxCell id="wd_ZxxUc7aDBKVdMZWth-221" value="" style="triangle;whiteSpace=wrap;html=1;rotation=-90;" vertex="1" parent="1">
          <mxGeometry x="1095" y="660" width="20" height="30" as="geometry" />
        </mxCell>
        <mxCell id="wd_ZxxUc7aDBKVdMZWth-299" style="edgeStyle=orthogonalEdgeStyle;rounded=0;orthogonalLoop=1;jettySize=auto;html=1;exitX=1;exitY=0.5;exitDx=0;exitDy=0;entryX=1;entryY=0.5;entryDx=0;entryDy=0;" edge="1" parent="1" source="wd_ZxxUc7aDBKVdMZWth-222" target="wd_ZxxUc7aDBKVdMZWth-165">
          <mxGeometry relative="1" as="geometry" />
        </mxCell>
        <mxCell id="wd_ZxxUc7aDBKVdMZWth-222" value="" style="triangle;whiteSpace=wrap;html=1;rotation=-90;" vertex="1" parent="1">
          <mxGeometry x="1045" y="660" width="20" height="30" as="geometry" />
        </mxCell>
        <mxCell id="wd_ZxxUc7aDBKVdMZWth-296" style="edgeStyle=orthogonalEdgeStyle;rounded=0;orthogonalLoop=1;jettySize=auto;html=1;exitX=1;exitY=0.5;exitDx=0;exitDy=0;entryX=1;entryY=0.5;entryDx=0;entryDy=0;" edge="1" parent="1" source="wd_ZxxUc7aDBKVdMZWth-223" target="wd_ZxxUc7aDBKVdMZWth-162">
          <mxGeometry relative="1" as="geometry" />
        </mxCell>
        <mxCell id="wd_ZxxUc7aDBKVdMZWth-223" value="" style="triangle;whiteSpace=wrap;html=1;rotation=-90;" vertex="1" parent="1">
          <mxGeometry x="1195" y="660" width="20" height="30" as="geometry" />
        </mxCell>
        <mxCell id="wd_ZxxUc7aDBKVdMZWth-295" style="edgeStyle=orthogonalEdgeStyle;rounded=0;orthogonalLoop=1;jettySize=auto;html=1;exitX=1;exitY=0.5;exitDx=0;exitDy=0;entryX=1;entryY=0.5;entryDx=0;entryDy=0;" edge="1" parent="1" source="wd_ZxxUc7aDBKVdMZWth-224" target="wd_ZxxUc7aDBKVdMZWth-161">
          <mxGeometry relative="1" as="geometry" />
        </mxCell>
        <mxCell id="wd_ZxxUc7aDBKVdMZWth-224" value="" style="triangle;whiteSpace=wrap;html=1;rotation=-90;" vertex="1" parent="1">
          <mxGeometry x="1245" y="660" width="20" height="30" as="geometry" />
        </mxCell>
        <mxCell id="wd_ZxxUc7aDBKVdMZWth-282" style="edgeStyle=orthogonalEdgeStyle;rounded=0;orthogonalLoop=1;jettySize=auto;html=1;exitX=0.5;exitY=1;exitDx=0;exitDy=0;entryX=0;entryY=0.5;entryDx=0;entryDy=0;" edge="1" parent="1" source="wd_ZxxUc7aDBKVdMZWth-283" target="wd_ZxxUc7aDBKVdMZWth-285">
          <mxGeometry relative="1" as="geometry" />
        </mxCell>
        <mxCell id="wd_ZxxUc7aDBKVdMZWth-283" value="c_in[27]" style="text;html=1;align=center;verticalAlign=middle;whiteSpace=wrap;rounded=0;" vertex="1" parent="1">
          <mxGeometry x="-60" y="20" width="50" height="20" as="geometry" />
        </mxCell>
        <mxCell id="wd_ZxxUc7aDBKVdMZWth-284" value="" style="triangle;whiteSpace=wrap;html=1;rotation=90;" vertex="1" parent="1">
          <mxGeometry x="-45" y="50" width="20" height="30" as="geometry" />
        </mxCell>
        <mxCell id="wd_ZxxUc7aDBKVdMZWth-293" style="edgeStyle=orthogonalEdgeStyle;rounded=0;orthogonalLoop=1;jettySize=auto;html=1;exitX=1;exitY=0.5;exitDx=0;exitDy=0;entryX=0;entryY=0.5;entryDx=0;entryDy=0;" edge="1" parent="1" source="wd_ZxxUc7aDBKVdMZWth-285" target="wd_ZxxUc7aDBKVdMZWth-78">
          <mxGeometry relative="1" as="geometry">
            <Array as="points">
              <mxPoint x="-35" y="90" />
              <mxPoint x="1350" y="90" />
              <mxPoint x="1350" y="645" />
            </Array>
          </mxGeometry>
        </mxCell>
        <mxCell id="wd_ZxxUc7aDBKVdMZWth-285" value="" style="triangle;whiteSpace=wrap;html=1;rotation=90;" vertex="1" parent="1">
          <mxGeometry x="-45" y="50" width="20" height="30" as="geometry" />
        </mxCell>
        <mxCell id="wd_ZxxUc7aDBKVdMZWth-333" style="edgeStyle=orthogonalEdgeStyle;rounded=0;orthogonalLoop=1;jettySize=auto;html=1;exitX=0.5;exitY=0;exitDx=0;exitDy=0;entryX=0;entryY=0.5;entryDx=0;entryDy=0;" edge="1" parent="1" source="wd_ZxxUc7aDBKVdMZWth-286" target="wd_ZxxUc7aDBKVdMZWth-287">
          <mxGeometry relative="1" as="geometry" />
        </mxCell>
        <mxCell id="wd_ZxxUc7aDBKVdMZWth-286" value="d_in[27]" style="text;html=1;align=center;verticalAlign=middle;whiteSpace=wrap;rounded=0;" vertex="1" parent="1">
          <mxGeometry x="-120" y="700" width="50" height="20" as="geometry" />
        </mxCell>
        <mxCell id="wd_ZxxUc7aDBKVdMZWth-294" style="edgeStyle=orthogonalEdgeStyle;rounded=0;orthogonalLoop=1;jettySize=auto;html=1;exitX=1;exitY=0.5;exitDx=0;exitDy=0;entryX=1;entryY=0.5;entryDx=0;entryDy=0;" edge="1" parent="1" source="wd_ZxxUc7aDBKVdMZWth-287" target="wd_ZxxUc7aDBKVdMZWth-163">
          <mxGeometry relative="1" as="geometry">
            <Array as="points">
              <mxPoint x="-95" y="645" />
            </Array>
          </mxGeometry>
        </mxCell>
        <mxCell id="wd_ZxxUc7aDBKVdMZWth-287" value="" style="triangle;whiteSpace=wrap;html=1;rotation=-90;" vertex="1" parent="1">
          <mxGeometry x="-105" y="660" width="20" height="30" as="geometry" />
        </mxCell>
      </root>
    </mxGraphModel>
  </diagram>
</mxfile>
